<svg width="24" height="24" viewBox="0 0 24 24" fill="none" xmlns="http://www.w3.org/2000/svg">
<path fill-rule="evenodd" clip-rule="evenodd" d="M24 12C24 18.6274 18.6274 24 12 24C5.37258 24 0 18.6274 0 12C0 5.37258 5.37258 0 12 0C18.6274 0 24 5.37258 24 12ZM7.26 10.8538C7.44241 10.9559 7.65523 11.1804 7.7363 11.3539C7.82751 11.5172 8.1518 12.6296 8.45582 13.8339C8.58788 14.3359 8.71099 14.8072 8.81085 15.1894L8.81094 15.1898C8.94856 15.7166 9.04199 16.0743 9.05373 16.1098C9.06386 16.1608 9.40842 15.2015 9.81379 13.9666C10.2191 12.7317 10.665 11.5478 10.7968 11.3437C11.1413 10.8028 11.5467 10.6191 12.2865 10.6701C12.8236 10.711 12.9249 10.7518 13.229 11.0784C13.4621 11.3335 13.6445 11.7111 13.8167 12.303C14.7896 15.528 14.9822 16.0894 15.0328 15.9567C15.0595 15.8851 15.2729 15.1083 15.5366 14.1481C15.5571 14.0738 15.5778 13.9983 15.5988 13.922C15.616 13.8591 15.6335 13.7957 15.651 13.7318C16.2591 11.4662 16.3705 11.1804 16.7759 10.864C17.4447 10.3333 18.4379 10.8028 18.4379 11.6601C18.4379 12.1704 16.9482 16.8446 16.5529 17.5998C16.1374 18.3754 15.7118 18.6408 14.972 18.5898C13.9384 18.5183 13.6546 18.0489 12.7121 14.9055C12.3777 13.8033 12.0838 12.9358 12.0433 12.9766C12.0129 13.0174 11.7393 13.8237 11.4454 14.783C10.4522 18.008 10.0367 18.6102 8.83078 18.6102C8.22274 18.6102 7.7363 18.3142 7.42214 17.7427C7.24986 17.4161 6.34793 14.5993 5.64868 12.1908C5.34466 11.1192 6.34793 10.2925 7.26 10.8538ZM15.7524 5.18967C14.9518 4.59774 14.293 4.29157 13.3506 4.06704C12.1041 3.77108 10.5738 3.95478 9.34762 4.55692C8.27341 5.07741 7.13839 6.16942 6.64182 7.14917L6.46954 7.48595H17.6373L17.465 7.14917C17.1306 6.48579 16.4415 5.69995 15.7524 5.18967Z" fill="#D4193C"/>
</svg>
