<svg width="22" height="22" viewBox="0 0 22 22" fill="none" xmlns="http://www.w3.org/2000/svg">
<path d="M9.84622 12.1549C10.1627 12.4714 10.5473 12.6296 11 12.6296C11.4556 12.6325 11.8405 12.4743 12.1549 12.1549C12.4692 11.8355 12.6275 11.4505 12.6296 11C12.6318 10.5495 12.4735 10.1649 12.1549 9.84622C11.8362 9.52754 11.4512 9.36892 11 9.37037C10.5488 9.37182 10.1642 9.53044 9.84622 9.84622C9.52826 10.162 9.36965 10.5466 9.37037 11C9.37109 11.4534 9.52971 11.8384 9.84622 12.1549Z" fill="#C0C2CC"/>
<path fill-rule="evenodd" clip-rule="evenodd" d="M11 22C4.92487 22 0 17.0751 0 11C0 4.92487 4.92487 0 11 0C17.0751 0 22 4.92487 22 11C22 17.0751 17.0751 22 11 22ZM7.16879 15.5867C6.70779 15.7184 6.28159 15.2922 6.4133 14.8312L7.72433 10.2426C8.07236 9.02452 9.02452 8.07236 10.2426 7.72433L14.8312 6.4133C15.2922 6.28159 15.7184 6.7078 15.5867 7.16879L14.2757 11.7574C13.9276 12.9755 12.9755 13.9276 11.7574 14.2757L7.16879 15.5867Z" fill="#C0C2CC"/>
</svg>
