<svg width="22" height="22" viewBox="0 0 22 22" fill="none" xmlns="http://www.w3.org/2000/svg">
<path fill-rule="evenodd" clip-rule="evenodd" d="M8.88589 2.97297C5.62027 2.97297 2.97297 5.62027 2.97297 8.88589C2.97297 12.1515 5.62027 14.7988 8.88589 14.7988C12.1515 14.7988 14.7988 12.1515 14.7988 8.88589C14.7988 5.62027 12.1515 2.97297 8.88589 2.97297ZM0 8.88589C0 3.97835 3.97835 0 8.88589 0C13.7934 0 17.7718 3.97835 17.7718 8.88589C17.7718 10.803 17.1647 12.5783 16.1322 14.03L21.5646 19.4624C22.1451 20.0429 22.1451 20.9841 21.5646 21.5646C20.9841 22.1451 20.0429 22.1451 19.4624 21.5646L14.03 16.1322C12.5783 17.1647 10.803 17.7718 8.88589 17.7718C3.97835 17.7718 0 13.7934 0 8.88589Z" fill="#C0C2CC"/>
</svg>
