<svg width="22" height="22" viewBox="0 0 22 22" fill="none" xmlns="http://www.w3.org/2000/svg">
<path d="M5.00028 14.5733C4.46561 14.3843 3.95877 14.1365 3.48755 13.8375L1.89697 14.3675L1.88836 14.3702C1.28343 14.5718 0.980902 14.6726 0.778807 14.6006C0.602105 14.5376 0.46224 14.3983 0.399228 14.2216C0.326919 14.0188 0.428469 13.7141 0.63148 13.1051L0.632324 13.1028L1.16236 11.5126C0.426173 10.3523 0 8.97602 0 7.50012C0 3.35792 3.35786 0 7.5 0C10.7656 0 13.5438 2.08715 14.5733 5.00028C14.5489 5.00009 14.5245 5 14.5 5C9.25329 5 5 9.25329 5 14.5C5 14.5245 5.00009 14.5489 5.00028 14.5733Z" fill="#C0C2CC"/>
<path d="M18.5125 20.8375C17.3521 21.5737 15.9758 22 14.4999 22C14.3581 22 14.2172 21.9961 14.0773 21.9883C10.1318 21.7692 7 18.5005 7 14.5001C7 10.3579 10.3579 7 14.5 7C18.6421 7 22 10.3579 22 14.5001C22 15.976 21.5738 17.3523 20.8376 18.5126L21.3677 20.1028L21.3685 20.1051C21.5715 20.7141 21.6731 21.0188 21.6008 21.2216C21.5378 21.3983 21.3979 21.5376 21.2212 21.6006C21.0191 21.6726 20.7166 21.5718 20.1116 21.3702L20.103 21.3675L18.5125 20.8375Z" fill="#C0C2CC"/>
</svg>
