<svg width="20" height="22" viewBox="0 0 20 22" fill="none" xmlns="http://www.w3.org/2000/svg">
<path d="M2.22222 22H17.7778C18.3671 22 18.9324 21.7682 19.3491 21.3556C19.7659 20.943 20 20.3834 20 19.7999V7.69967C20 7.40793 19.8829 7.12813 19.6746 6.92184C19.4662 6.71554 19.1836 6.59965 18.8889 6.59965H15.5556V5.74493C15.5556 2.87496 13.4411 0.3053 10.5556 0.0269935C9.78319 -0.0490049 9.00332 0.0359046 8.2661 0.276259C7.52887 0.516614 6.85064 0.907091 6.27502 1.42257C5.6994 1.93805 5.23915 2.56711 4.92388 3.26928C4.60861 3.97146 4.44529 4.7312 4.44444 5.49962V6.59965H1.11111C0.816426 6.59965 0.533811 6.71554 0.325437 6.92184C0.117063 7.12813 0 7.40793 0 7.69967V19.7999C0 20.3834 0.234126 20.943 0.650874 21.3556C1.06762 21.7682 1.63285 22 2.22222 22ZM15.5556 8.7997V10.9997H13.3333V8.7997H15.5556ZM6.66667 5.49962C6.66667 3.68018 8.16222 2.19954 10 2.19954C11.8378 2.19954 13.3333 3.68018 13.3333 5.49962V6.59965H6.66667V5.49962ZM4.44444 8.7997H6.66667V10.9997H4.44444V8.7997Z" fill="#C0C2CC"/>
</svg>
