<svg width="35" height="24" viewBox="0 0 35 24" fill="none" xmlns="http://www.w3.org/2000/svg">
<g clip-path="url(#clip0_4646_7864)">
<path d="M35 0H0V24H35V0Z" fill="#FAFAFC"/>
<path fill-rule="evenodd" clip-rule="evenodd" d="M21.1041 16.8449C21.3011 16.3446 21.7397 15.2234 21.5311 14.9517H21.5327C21.3251 14.6795 20.1597 14.8224 19.6355 14.8866L19.6344 14.8868C19.475 14.9063 19.4504 14.7646 19.5938 14.6621C20.5245 13.9942 22.0494 14.1853 22.2265 14.4107C22.4036 14.6362 22.1782 16.1974 21.3065 16.9427C21.1723 17.057 21.0443 16.996 21.1041 16.8449ZM14.8412 17.6168C16.8683 17.6168 19.2288 16.9631 20.8549 15.7378V15.7402C21.124 15.5335 20.8933 15.2297 20.6188 15.3487C18.8439 16.1133 16.9386 16.5124 15.0122 16.5231C12.3396 16.5231 9.75443 15.7746 7.66298 14.5321C7.47973 14.4233 7.34328 14.6151 7.49663 14.7552C9.51008 16.6104 12.1294 17.631 14.8412 17.6168Z" fill="#FF9900"/>
<path fill-rule="evenodd" clip-rule="evenodd" d="M28.096 13.9481H28.9593H28.9601C29.0504 13.9498 29.1254 13.8774 29.1287 13.7852V11.3418C29.1287 11.0349 29.1448 10.7577 29.266 10.4805C29.3491 10.2697 29.545 10.1278 29.7674 10.1173C30.3196 10.1173 30.3143 10.7352 30.3101 11.2206C30.3097 11.2616 30.3094 11.3015 30.3094 11.3401V13.8056C30.3201 13.8847 30.3846 13.9447 30.4627 13.9481H31.3337C31.4162 13.9499 31.4874 13.889 31.5 13.8056V10.9487C31.5 10.5095 31.5 9.898 31.2739 9.53475C31.0293 9.1433 30.6506 9 30.2626 9C29.6646 9 29.325 9.29595 29.0827 9.9168H29.0659V9.22235C29.0484 9.14975 28.9857 9.0979 28.9125 9.0955H28.1091C28.0242 9.0934 27.9519 9.15805 27.9427 9.24425V13.7852C27.9438 13.8723 28.0109 13.9435 28.096 13.9481ZM27.2834 11.5665C27.2834 10.1337 26.588 9.00625 25.3024 9.00625C24.0496 9.00625 23.3543 10.1149 23.3543 11.5187C23.3543 12.9224 24.0412 14.0499 25.3024 14.0499C26.5168 14.0499 27.2834 12.9515 27.2834 11.5665ZM24.6315 11.3754C24.6315 10.8211 24.6721 9.93325 25.3108 9.93325C25.5852 9.93325 25.7792 10.0593 25.8766 10.3724C25.99 10.7349 26.0061 11.1937 26.0061 11.5758C26.0061 12.1583 25.9808 13.1135 25.3023 13.1135C24.6312 13.1135 24.6314 11.9554 24.6315 11.3938V11.3754ZM8.43195 13.9576H9.2975H9.2983C9.3417 13.9585 9.3838 13.9419 9.41515 13.9111C9.4465 13.8804 9.4646 13.8382 9.4654 13.7938V11.3879V11.3503C9.46505 10.8271 9.46455 10.1353 10.0634 10.1353C10.617 10.1353 10.6085 10.7431 10.6016 11.234C10.6008 11.2869 10.6001 11.3386 10.6001 11.3879V13.7947C10.6016 13.8816 10.6684 13.9525 10.7534 13.9576H11.6213C11.6646 13.9583 11.7065 13.9415 11.7377 13.9108C11.7689 13.8801 11.7868 13.8381 11.7877 13.7938V11.3879L11.7876 11.3307C11.7871 11.0758 11.7863 10.7318 11.8689 10.5181C11.9531 10.2996 12.1566 10.1534 12.3864 10.1462C12.6371 10.1462 12.8311 10.2323 12.8955 10.5377C12.9284 10.6846 12.9241 11.0253 12.9213 11.2512C12.9206 11.3045 12.92 11.3515 12.92 11.3879V13.7947C12.9211 13.8817 12.9882 13.953 13.0733 13.9576H13.9389C13.9824 13.9585 14.0244 13.9419 14.0558 13.9111C14.0871 13.8804 14.1052 13.8382 14.106 13.7938V10.9291C14.106 10.8593 14.1072 10.7879 14.1084 10.7158C14.1155 10.2881 14.123 9.8327 13.8875 9.50575C13.6021 9.13495 13.143 8.95015 12.6865 9.02235C12.23 9.09455 11.8472 9.4125 11.6849 9.85415C11.4419 9.2803 11.0946 9.0133 10.561 9.0133C10.0274 9.0133 9.631 9.2803 9.42095 9.85415H9.40485V9.2615C9.4003 9.177 9.33425 9.10955 9.2515 9.1049H8.4442C8.35505 9.104 8.28155 9.17595 8.2786 9.26695V13.808C8.28645 13.8896 8.35165 13.9532 8.43195 13.9576ZM6.92545 13.992C6.86845 14.0424 6.7865 14.0509 6.72075 14.0131C6.47545 13.8046 6.4015 13.692 6.2879 13.519C6.2684 13.4892 6.24765 13.4577 6.2247 13.4235C5.7486 13.9183 5.41205 14.0663 4.79642 14.0663C4.06733 14.0663 3.5 13.6068 3.5 12.6876C3.5 11.9697 3.88333 11.4819 4.41999 11.2423C4.81628 11.0647 5.345 11.0096 5.80215 10.962C5.88715 10.9531 5.96965 10.9445 6.0484 10.9354V10.8211C6.0484 10.7993 6.04855 10.7771 6.04875 10.7545C6.05025 10.5596 6.05195 10.3426 5.94335 10.1791C5.83755 10.0163 5.6367 9.9497 5.4573 9.9497C5.12685 9.9497 4.83246 10.1227 4.7604 10.4805C4.75126 10.564 4.68837 10.6308 4.60706 10.6434L3.77447 10.5502C3.73292 10.5442 3.69562 10.521 3.67129 10.486C3.64695 10.4511 3.63768 10.4075 3.64566 10.3654C3.8381 9.3257 4.7581 9.01175 5.58225 9.01175C6.0039 9.01175 6.5544 9.12605 6.8856 9.45175C7.2744 9.8235 7.27195 10.3102 7.26935 10.842C7.26915 10.8859 7.2689 10.9301 7.2689 10.9746V12.3517C7.2689 12.7226 7.40365 12.9071 7.5456 13.1014C7.56245 13.1245 7.57945 13.1477 7.5963 13.1714C7.6515 13.2497 7.66375 13.3476 7.5963 13.4063C7.4192 13.5574 7.10485 13.8361 6.93235 13.9935L6.92545 13.992ZM6.0522 11.8357L6.05225 11.8786C6.05255 12.2043 6.0528 12.4805 5.89045 12.7753C5.75245 13.0243 5.53395 13.1777 5.29015 13.1777C4.95818 13.1777 4.76421 12.9193 4.76421 12.5357C4.76421 11.7825 5.42585 11.6455 6.0522 11.6455V11.8357ZM18.8968 13.0982C18.9137 13.1213 18.9306 13.1446 18.9475 13.1683C19.0058 13.2497 19.018 13.3453 18.9437 13.3993C18.7666 13.5504 18.4523 13.8299 18.2798 13.9865C18.2224 14.0363 18.1407 14.0444 18.0751 14.0068C17.8287 13.7975 17.7557 13.6865 17.6405 13.5112L17.6402 13.5107C17.6211 13.4816 17.6007 13.4507 17.5783 13.4172C17.1029 13.9121 16.7641 14.0601 16.1507 14.0601C15.4216 14.0601 14.8543 13.6005 14.8543 12.6821C14.8543 11.9634 15.2353 11.4756 15.7781 11.236C16.1753 11.0578 16.707 11.0029 17.1654 10.9556C17.2485 10.947 17.3295 10.9387 17.4065 10.9299V10.818C17.4065 10.7963 17.4067 10.7741 17.4069 10.7517C17.4084 10.5568 17.4101 10.3397 17.3007 10.1768C17.198 10.0139 16.9933 9.94655 16.8147 9.94655C16.4842 9.94655 16.1914 10.1196 16.1185 10.4774C16.1091 10.5607 16.0464 10.6274 15.9652 10.6403L15.1257 10.5478C15.0839 10.542 15.0462 10.5188 15.0217 10.4837C14.9972 10.4485 14.9879 10.4046 14.9961 10.3623C15.1893 9.3218 16.1093 9.0086 16.9335 9.0086C17.3544 9.0086 17.9049 9.1229 18.2368 9.4486C18.6264 9.81845 18.6237 10.3013 18.6207 10.8304C18.6204 10.8769 18.6202 10.9243 18.6202 10.9714V12.3493C18.6202 12.7195 18.7549 12.9039 18.8968 13.0982ZM16.646 13.173C16.889 13.173 17.1083 13.0195 17.2455 12.7713C17.4084 12.4749 17.4083 12.1974 17.4081 11.8677V11.8326V11.6416C16.7817 11.6416 16.1201 11.7778 16.1201 12.5317C16.1201 12.9146 16.314 13.173 16.646 13.173ZM19.6804 9.2513V9.898C19.68 9.94235 19.6973 9.985 19.7285 10.0159C19.7596 10.0468 19.8018 10.0634 19.8452 10.0617H21.3356L19.6267 12.567C19.5487 12.7014 19.5119 12.8565 19.5209 13.0125V13.6741C19.5209 13.7696 19.6244 13.8784 19.7233 13.8244C20.6659 13.3253 21.7867 13.3233 22.731 13.8189C22.8391 13.876 22.941 13.7656 22.941 13.6701V12.9749C22.9381 12.8686 22.8796 12.7721 22.7877 12.722C22.2901 12.4363 21.7113 12.3525 21.1639 12.3658L22.639 10.2158C22.7762 10.0232 22.8529 9.90115 22.8529 9.80795V9.2513C22.8533 9.2071 22.836 9.1646 22.805 9.1337C22.7741 9.1028 22.7321 9.0862 22.6888 9.0877H19.8422C19.7988 9.0852 19.7565 9.1016 19.7257 9.13275C19.6948 9.16395 19.6784 9.20705 19.6804 9.2513Z" fill="#090A0D"/>
</g>
<defs>
<clipPath id="clip0_4646_7864">
<rect width="35" height="24" fill="white"/>
</clipPath>
</defs>
</svg>
