<svg width="35" height="24" viewBox="0 0 35 24" fill="none" xmlns="http://www.w3.org/2000/svg">
<path d="M14.7343 23.5L34.4843 17.75V21C34.4843 22.3807 33.365 23.5 31.9843 23.5H14.7343Z" fill="#FD6020"/>
<path fill-rule="evenodd" clip-rule="evenodd" d="M30.7356 9.61085C31.8221 9.61085 32.4197 10.0944 32.4197 11.0077C32.4741 11.7062 31.9851 12.2972 31.3332 12.4046L32.8 14.3925H31.6591L30.4096 12.4584H30.3009V14.3925H29.3774V9.61085H30.7356ZM30.3009 11.8136H30.5726C31.1702 11.8136 31.4418 11.545 31.4418 11.0614C31.4418 10.6316 31.1702 10.363 30.5726 10.363H30.3009V11.8136ZM26.172 14.3925H28.7798V13.5866H27.0956V12.2972H28.7254V11.4913H27.0956V10.4167H28.7798V9.61085H26.172V14.3925ZM23.4556 12.8344L22.2061 9.61085H21.2282L23.2383 14.5H23.7273L25.7374 9.61085H24.7595L23.4556 12.8344ZM12.4271 12.0285C12.4271 13.3717 13.5137 14.5 14.8719 14.5C15.3065 14.5 15.6868 14.3925 16.0671 14.2313V13.1568C15.7954 13.4792 15.4151 13.6941 14.9805 13.6941C14.1113 13.6941 13.405 13.0493 13.405 12.1897V12.0823C13.3507 11.2226 14.0569 10.4705 14.9262 10.4167C15.3608 10.4167 15.7954 10.6316 16.0671 10.954V9.8795C15.7411 9.66455 15.3065 9.61085 14.9262 9.61085C13.5137 9.5034 12.4271 10.6316 12.4271 12.0285ZM10.7429 11.4375C10.1997 11.2226 10.0367 11.1152 10.0367 10.8465C10.091 10.5242 10.3626 10.2555 10.6886 10.3093C10.9602 10.3093 11.2319 10.4705 11.4492 10.6854L11.9381 10.0406C11.5579 9.7183 11.0689 9.5034 10.58 9.5034C9.81939 9.44965 9.16744 10.0406 9.11314 10.7928V10.8465C9.11314 11.4913 9.38474 11.8674 10.254 12.136C10.4713 12.1897 10.6886 12.2972 10.9059 12.4046C11.0689 12.5121 11.1776 12.6733 11.1776 12.8882C11.1776 13.2643 10.8516 13.5866 10.5256 13.5866H10.4713C10.0367 13.5866 9.65639 13.318 9.49339 12.9419L8.89579 13.5329C9.22179 14.1239 9.87369 14.4462 10.5256 14.4462C11.3949 14.5 12.1011 13.8553 12.1555 12.9956V12.8344C12.1011 12.1897 11.8295 11.8674 10.7429 11.4375ZM7.59194 14.3925H8.51549V9.61085H7.59194V14.3925ZM3.30005 9.61085H4.65824H4.92988C6.23374 9.6646 7.26599 10.7391 7.21164 12.0285C7.21164 12.727 6.88569 13.3717 6.34239 13.8553C5.85344 14.2313 5.25584 14.4463 4.65824 14.3925H3.30005V9.61085ZM4.49525 13.5866C4.92988 13.6403 5.41884 13.4792 5.74479 13.2105C6.07074 12.8882 6.23374 12.4584 6.23374 11.9748C6.23374 11.545 6.07074 11.1152 5.74479 10.7928C5.41884 10.5242 4.92988 10.363 4.49525 10.4167H4.22361V13.5866H4.49525Z" fill="#090A0D"/>
<path fill-rule="evenodd" clip-rule="evenodd" d="M18.8378 9.5C17.4796 9.5 16.3387 10.5745 16.3387 11.9715C16.3387 13.3146 17.4253 14.4429 18.8378 14.4966C20.2503 14.5504 21.3369 13.4221 21.3912 12.0252C21.3369 10.6283 20.2503 9.5 18.8378 9.5Z" fill="#FD6020"/>
</svg>
