<svg width="35" height="24" viewBox="0 0 35 24" fill="none" xmlns="http://www.w3.org/2000/svg">
<g clip-path="url(#clip0_4646_7855)">
<path d="M35.5 0H0V24H35.5V0Z" fill="#F884A1"/>
<path fill-rule="evenodd" clip-rule="evenodd" d="M20.366 9.4356L21.3335 4.61809C21.4499 4.07764 21.1298 3.53303 20.5935 3.37505C19.9948 3.22539 19.392 3.5746 19.2382 4.16494L18.3616 7.1662L17.6705 4.21068C17.6165 3.93629 17.4502 3.69101 17.2132 3.53303C16.9763 3.37505 16.6811 3.32101 16.4026 3.37921C15.8538 3.49561 15.4963 4.13584 15.6335 4.71787L16.0412 8.06575C15.687 7.71265 15.2733 7.6039 14.7939 7.8816L14.7316 7.9232C14.2947 8.2207 14.2058 8.82865 14.4866 9.38235C14.2542 9.39545 14.027 9.49235 13.8543 9.66925L13.8127 9.715C13.4095 10.1307 13.4885 10.8333 13.9915 11.3363L14.4002 11.7436C14.4461 13.6263 15.9776 14.9449 17.7832 14.9449C17.8045 14.9449 17.8252 14.9419 17.8447 14.9365C20.2905 14.912 21.3654 13.4553 21.5496 11.2449C21.6078 10.5464 21.479 10.0683 21.2087 9.7815C21.0591 9.6235 20.9011 9.5487 20.7805 9.53205L20.366 9.4356ZM17.6961 14.4947C17.7082 14.4928 17.7206 14.4917 17.7332 14.4917C19.9865 14.5125 20.9343 13.2487 21.1048 11.2116C21.1547 10.6296 21.0549 10.2762 20.8803 10.0891C20.8346 10.0434 20.7888 10.0101 20.7473 9.9935L20.6974 9.9769L18.0783 9.36575C18.0706 9.3632 18.0565 9.36065 18.0371 9.3571C18.0251 9.3549 18.011 9.3523 17.9951 9.34915C17.8538 9.3242 17.7083 9.32005 17.5752 9.34915C17.3715 9.39485 17.2426 9.5071 17.1761 9.7233C17.0876 10.0182 17.0951 10.2434 17.2825 10.4237C17.3297 10.4411 17.368 10.4724 17.3936 10.5116C17.5247 10.5982 17.7087 10.6738 17.9577 10.7418L19.683 11.1284C19.9698 11.195 19.8784 11.6232 19.5915 11.5691L19.5375 11.5608C19.3213 11.54 19.076 11.5567 18.8515 11.6398C18.4316 11.7978 18.1697 12.1595 18.1365 12.833C18.1281 12.9577 18.0242 13.0491 17.8995 13.045C17.7748 13.0367 17.6792 12.9327 17.6875 12.808C17.7207 12.0639 18.0117 11.5774 18.4774 11.3155L17.8496 11.17C17.6331 11.1114 17.4506 11.042 17.2988 10.9629C17.226 11.0771 17.1311 11.1762 17.0181 11.2532L16.9682 11.2864C16.9396 11.3058 16.9103 11.3235 16.8805 11.3396C17.0821 11.7166 17.0289 12.1934 16.7187 12.517L16.673 12.5627C16.2822 12.9618 15.6461 12.9702 15.2429 12.5835L14.9068 12.2486C15.1752 13.5666 16.3304 14.4583 17.6961 14.4947ZM16.9398 10.7048C16.8989 10.7761 16.8418 10.8381 16.7728 10.8832L16.7229 10.9123C16.4652 11.0869 16.116 11.0204 15.9414 10.7626L14.9602 9.3034C14.6942 8.896 14.7274 8.47195 14.9852 8.2932L15.0309 8.2599C15.3635 8.0687 15.642 8.2142 15.9289 8.6341L16.1626 8.98285C16.1728 9.0055 16.1867 9.0262 16.2036 9.04405L16.6999 9.7847C16.6324 10.1404 16.6934 10.4525 16.9398 10.7048ZM19.9282 9.3337L18.1905 8.92925C18.1878 8.92855 18.1844 8.92765 18.1804 8.9266C18.1599 8.92115 18.1228 8.91125 18.0741 8.9043C17.8787 8.87105 17.675 8.8669 17.4754 8.90845C17.2371 8.96235 17.0376 9.0821 16.8991 9.27425L16.5822 8.8012L16.0783 4.6472L16.0741 4.62225C15.9868 4.27304 16.203 3.88225 16.494 3.81989C16.6562 3.78663 16.8266 3.81573 16.9638 3.90719C17.101 3.99865 17.1966 4.14 17.2299 4.30214L18.1116 8.068C18.1163 8.1619 18.1779 8.246 18.2737 8.2724C18.3942 8.30565 18.519 8.23915 18.5522 8.11855L19.6705 4.28551C19.7662 3.93213 20.1237 3.72011 20.4729 3.80741C20.7722 3.89887 20.9593 4.21067 20.8928 4.52663L19.9282 9.3337ZM15.5672 11.0162C15.7681 11.3097 16.0935 11.4653 16.4225 11.4595C16.6019 11.6772 16.5923 11.9993 16.3903 12.2052L16.3487 12.2509C16.1325 12.4713 15.7792 12.4754 15.5588 12.2593L14.3116 11.0245C13.9666 10.6795 13.9208 10.2554 14.137 10.0309L14.1786 9.9852C14.3511 9.80465 14.6322 9.78285 14.8347 9.92365L15.5672 11.0162ZM11.2685 20.3328C11.9752 20.3328 12.5157 19.8588 12.5157 19.1646C12.5157 18.5202 12.0584 18.2416 11.4971 18.0754C11.1396 17.9714 10.9151 17.8924 10.9151 17.6388C10.9151 17.4268 11.0689 17.2605 11.3142 17.2605C11.5221 17.2605 11.6759 17.3811 11.7881 17.564L12.3743 17.194C12.1914 16.7907 11.7798 16.5829 11.335 16.5829C10.6282 16.5829 10.1792 17.0901 10.1792 17.6804C10.1792 18.1502 10.4619 18.5119 11.1562 18.7156C11.5345 18.8237 11.7757 18.8985 11.7757 19.1978C11.7757 19.4805 11.5719 19.6551 11.2768 19.6551C10.9608 19.6551 10.7197 19.4514 10.5742 19.2643L10.0878 19.7508C10.3497 20.1083 10.7737 20.3328 11.2685 20.3328ZM17.2299 16.6286V17.2938C16.835 17.2772 16.5481 17.4767 16.5481 17.9174V18.1876C16.7061 18.0213 16.9306 17.9382 17.2091 17.9382V18.6117C16.8183 18.62 16.5481 18.8694 16.5481 19.2186V20.2663H15.8414V17.8758C15.8414 17.2023 16.2654 16.6286 17.126 16.6286H17.2299ZM23.0003 18.9817V18.3664C23.1583 18.5327 23.3787 18.6158 23.6614 18.6158V17.9465C23.2789 17.9382 23.0003 17.6804 23.0003 17.3395V16.9446H22.2936V19.0232C22.2936 19.6967 22.7135 20.2704 23.5782 20.2704H23.6821V19.6053C23.2872 19.6177 23.0003 19.4223 23.0003 18.9817ZM12.7691 19.0066C12.7691 19.7341 13.3761 20.3328 14.1244 20.3328C14.8727 20.3328 15.4797 19.7341 15.4797 19.0066C15.4797 18.2791 14.8727 17.6804 14.1244 17.6804C13.3761 17.6804 12.7691 18.2791 12.7691 19.0066ZM25 19.8339C25 20.0958 24.7838 20.3079 24.5261 20.3079C24.2642 20.3079 24.0521 20.0958 24.0521 19.8339C24.0521 19.572 24.2642 19.36 24.5261 19.36C24.788 19.36 25 19.5762 25 19.8339ZM14.1242 19.6676C14.4859 19.6676 14.7728 19.3808 14.7728 19.0066C14.7728 18.6324 14.4859 18.3456 14.1242 18.3456C13.7584 18.3456 13.4757 18.6324 13.4757 19.0066C13.4757 19.3849 13.7625 19.6676 14.1242 19.6676ZM17.417 19.0066C17.417 19.7341 18.024 20.3328 18.7723 20.3328C19.5206 20.3328 20.1276 19.7341 20.1276 19.0066C20.1276 18.2791 19.5206 17.6804 18.7723 17.6804C18.024 17.6804 17.417 18.2791 17.417 19.0066ZM18.7722 19.6676C19.1381 19.6676 19.4208 19.3808 19.4208 19.0066C19.4208 18.6324 19.1339 18.3456 18.7722 18.3456C18.4106 18.3456 18.1237 18.6324 18.1237 19.0066C18.1237 19.3849 18.4106 19.6676 18.7722 19.6676ZM21.196 17.7511V18.0379C21.3374 17.8093 21.566 17.7012 21.8861 17.7137V18.4703C21.4621 18.4703 21.2168 18.7031 21.2168 19.1188V20.2663H20.51V17.7511H21.196Z" fill="#FAFAFC"/>
</g>
<defs>
<clipPath id="clip0_4646_7855">
<rect width="35" height="24" fill="white"/>
</clipPath>
</defs>
</svg>
