<svg width="35" height="24" viewBox="0 0 35 24" fill="none" xmlns="http://www.w3.org/2000/svg">
<g clip-path="url(#clip0_4646_7861)">
<path d="M35.5 0H0V24H35.5V0Z" fill="#FEB4C7"/>
<path fill-rule="evenodd" clip-rule="evenodd" d="M5.42415 15.3796H4V9H5.42415V15.3796ZM8.9797 9H7.58645C7.58645 10.174 7.0614 11.2515 6.146 11.9565L5.594 12.3815L7.7328 15.3799H9.4913L7.52335 12.6209C8.4562 11.6659 8.9797 10.3812 8.9797 9ZM11.2513 15.3779H9.9063V9.0012H11.2513V15.3779ZM15.3148 10.9669V11.2491C14.9519 10.9946 14.5139 10.8449 14.0414 10.8449C12.7911 10.8449 11.7775 11.887 11.7775 13.1725C11.7775 14.4579 12.7911 15.5 14.0414 15.5C14.5139 15.5 14.9519 15.3504 15.3148 15.096V15.3779H16.5994V10.9669H15.3148ZM15.311 13.1725C15.311 13.7993 14.7898 14.3074 14.1469 14.3074C13.5041 14.3074 12.9829 13.7993 12.9829 13.1725C12.9829 12.5457 13.5041 12.0377 14.1469 12.0377C14.7898 12.0377 15.311 12.5457 15.311 13.1725ZM28.8671 11.2491V10.9669H30.1516V15.3779H28.8671V15.096C28.5042 15.3504 28.0662 15.5 27.5937 15.5C26.3433 15.5 25.3297 14.4579 25.3297 13.1725C25.3297 11.887 26.3433 10.8449 27.5937 10.8449C28.0662 10.8449 28.5042 10.9946 28.8671 11.2491ZM27.6992 14.3074C28.342 14.3074 28.8631 13.7993 28.8631 13.1725C28.8631 12.5457 28.342 12.0377 27.6992 12.0377C27.0562 12.0377 26.5352 12.5457 26.5352 13.1725C26.5352 13.7993 27.0562 14.3074 27.6992 14.3074ZM23.047 10.8483C22.5339 10.8483 22.0482 11.012 21.7235 11.4639V10.9671H20.4445V15.3779H21.7392V13.0599C21.7392 12.3891 22.1768 12.0606 22.7036 12.0606C23.2681 12.0606 23.5926 12.4074 23.5926 13.0507V15.3779H24.8757V12.5729C24.8757 11.5464 24.0819 10.8483 23.047 10.8483ZM18.5867 10.967V11.5414C18.8442 11.1968 19.3239 10.9672 19.8456 10.9672V12.2507L19.8415 12.2506L19.8385 12.2505L19.8357 12.2503L19.8304 12.2501C19.3221 12.2501 18.5896 12.6237 18.5896 13.3184V15.3779H17.2715V10.967H18.5867ZM30.7092 14.6421C30.7092 14.1844 31.0701 13.8133 31.5153 13.8133C31.9605 13.8133 32.3214 14.1844 32.3214 14.6421C32.3214 15.0998 31.9605 15.4708 31.5153 15.4708C31.0701 15.4708 30.7092 15.0998 30.7092 14.6421Z" fill="#17120F"/>
</g>
<defs>
<clipPath id="clip0_4646_7861">
<rect width="35" height="24" fill="white"/>
</clipPath>
</defs>
</svg>
