<svg width="35" height="24" viewBox="0 0 35 24" fill="none" xmlns="http://www.w3.org/2000/svg">
<path fill-rule="evenodd" clip-rule="evenodd" d="M17.75 17.1569C16.5584 18.1852 15.0127 18.806 13.3237 18.806C9.5551 18.806 6.5 15.7154 6.5 11.903C6.5 8.09055 9.5551 5 13.3237 5C15.0127 5 16.5584 5.62075 17.75 6.64905C18.9416 5.62075 20.4873 5 22.1763 5C25.9449 5 29 8.09055 29 11.903C29 15.7154 25.9449 18.806 22.1763 18.806C20.4873 18.806 18.9416 18.1852 17.75 17.1569Z" fill="#ED0006"/>
<path fill-rule="evenodd" clip-rule="evenodd" d="M17.75 17.1569C19.2172 15.8908 20.1476 14.0068 20.1476 11.903C20.1476 9.79915 19.2172 7.91515 17.75 6.64905C18.9416 5.62075 20.4873 5 22.1762 5C25.9449 5 29 8.09055 29 11.903C29 15.7154 25.9449 18.806 22.1762 18.806C20.4873 18.806 18.9416 18.1852 17.75 17.1569Z" fill="#F9A000"/>
<path fill-rule="evenodd" clip-rule="evenodd" d="M17.75 6.64905C19.2172 7.9152 20.1476 9.79915 20.1476 11.903C20.1476 14.0068 19.2172 15.8907 17.75 17.1569C16.2829 15.8907 15.3525 14.0068 15.3525 11.903C15.3525 9.79915 16.2829 7.9152 17.75 6.64905Z" fill="#FF5E00"/>
</svg>
