<svg width="35" height="24" viewBox="0 0 35 24" fill="none" xmlns="http://www.w3.org/2000/svg">
<path fill-rule="evenodd" clip-rule="evenodd" d="M18.8055 8.14192L17.0275 8.52352V7.08202L18.8055 6.70752V8.14192ZM11.5803 7.52717L9.852 7.89462L9.84495 13.5545C9.84495 14.6003 10.6312 15.3705 11.6795 15.3705C12.2603 15.3705 12.6853 15.2645 12.9191 15.1373V13.7029C12.6924 13.7948 11.5732 14.1198 11.5732 13.074V10.5656H12.9191V9.06052H11.5732L11.5803 7.52717ZM30.5 12.1766C30.5 10.3677 29.6217 8.94042 27.9429 8.94042C26.2571 8.94042 25.2371 10.3677 25.2371 12.1625C25.2371 14.2894 26.4412 15.3634 28.1696 15.3634C29.0125 15.3634 29.65 15.1726 30.1317 14.9041V13.4909C29.65 13.7312 29.0975 13.8796 28.3962 13.8796C27.7092 13.8796 27.1 13.6393 27.0221 12.8055H30.4858C30.4858 12.7666 30.4884 12.6782 30.4913 12.5763C30.4953 12.4378 30.5 12.2743 30.5 12.1766ZM27.0008 11.5054C27.0008 10.7069 27.4895 10.3748 27.9358 10.3748C28.3679 10.3748 28.8283 10.7069 28.8283 11.5054H27.0008ZM7.3942 10.4738C7.01875 10.4738 6.7921 10.5797 6.7921 10.8553C6.7921 11.1562 7.1822 11.2886 7.66615 11.4528C8.4551 11.7205 9.49355 12.0728 9.49795 13.3779C9.49795 14.6427 8.485 15.3705 7.0117 15.3705C6.4025 15.3705 5.73665 15.2504 5.0779 14.9678V13.286C5.6729 13.6111 6.42375 13.8513 7.0117 13.8513C7.40835 13.8513 7.6917 13.7453 7.6917 13.4203C7.6917 13.087 7.2688 12.9347 6.7583 12.7508C5.9808 12.4707 5 12.1173 5 10.9401C5 9.68942 5.95625 8.94042 7.3942 8.94042C7.9821 8.94042 8.56295 9.03227 9.15085 9.26547V10.926C8.6125 10.6363 7.9325 10.4738 7.3942 10.4738ZM15.1222 9.58342L15.0088 9.06052H13.4788V15.2433H15.2497V11.0532C15.6676 10.5091 16.3759 10.608 16.5954 10.6857V9.06052C16.3688 8.97572 15.5401 8.82027 15.1222 9.58342ZM17.0274 9.06052H18.8053V15.2433H17.0274V9.06052ZM21.1145 9.49157C21.3624 9.26542 21.8086 8.94042 22.5028 8.94042C23.7424 8.94042 24.9111 10.0568 24.9182 12.106C24.9182 14.3459 23.7637 15.3634 22.4958 15.3634C21.8724 15.3634 21.497 15.102 21.242 14.9183L21.2349 16.918L19.4641 17.2925V9.05347H21.0224L21.1145 9.49157ZM21.2419 13.4768C21.4119 13.6605 21.6599 13.8089 22.0778 13.8089C22.7295 13.8089 23.1686 13.1023 23.1686 12.1554C23.1686 11.2298 22.7224 10.5091 22.0778 10.5091C21.6741 10.5091 21.4191 10.6504 21.2349 10.8553L21.2419 13.4768Z" fill="#6461FC"/>
</svg>
