<svg width="35" height="24" viewBox="0 0 35 24" fill="none" xmlns="http://www.w3.org/2000/svg">
<path fill-rule="evenodd" clip-rule="evenodd" d="M9.89998 15.241H8.34438C8.23793 15.241 8.14738 15.3184 8.13078 15.4234L7.50163 19.4125C7.48913 19.4912 7.55008 19.5622 7.62993 19.5622H8.37258C8.47903 19.5622 8.56958 19.4848 8.58618 19.3795L8.75588 18.3036C8.77223 18.1983 8.86298 18.121 8.96923 18.121H9.46168C10.4864 18.121 11.0778 17.6251 11.2323 16.6425C11.3019 16.2126 11.2352 15.8748 11.0339 15.6381C10.8128 15.3785 10.4206 15.241 9.89998 15.241ZM10.0795 16.6979C9.99443 17.2562 9.56788 17.2562 9.15553 17.2562H8.92078L9.08543 16.2136C9.09523 16.1507 9.14983 16.1043 9.21353 16.1043H9.32108C9.60203 16.1043 9.86703 16.1043 10.004 16.2644C10.0856 16.3599 10.1106 16.5018 10.0795 16.6979ZM14.5501 16.68H13.8051C13.7417 16.68 13.6868 16.7265 13.677 16.7895L13.6441 16.9978L13.592 16.9224C13.4307 16.6883 13.0711 16.61 12.7122 16.61C11.8889 16.61 11.1859 17.2335 11.0489 18.1082C10.9778 18.5444 11.0789 18.9615 11.3264 19.2525C11.5535 19.5199 11.8783 19.6314 12.2647 19.6314C12.928 19.6314 13.2959 19.2049 13.2959 19.2049L13.2626 19.4119C13.2501 19.4911 13.311 19.5621 13.3904 19.5621H14.0615C14.1682 19.5621 14.2582 19.4847 14.275 19.3794L14.6777 16.8297C14.6904 16.7513 14.6297 16.68 14.5501 16.68ZM13.5117 18.1299C13.4398 18.5555 13.102 18.8412 12.6713 18.8412C12.4549 18.8412 12.282 18.7718 12.171 18.6404C12.0609 18.5098 12.019 18.3239 12.0541 18.117C12.1212 17.695 12.4647 17.4 12.8889 17.4C13.1004 17.4 13.2724 17.4703 13.3857 17.6029C13.4991 17.7369 13.5442 17.9238 13.5117 18.1299ZM17.7689 16.6799H18.5176C18.6224 16.6799 18.6836 16.7975 18.624 16.8835L16.1342 20.4774C16.0939 20.5356 16.0275 20.5703 15.9565 20.5703H15.2088C15.1036 20.5703 15.0421 20.4517 15.103 20.3655L15.8783 19.2712L15.0538 16.8514C15.0253 16.7673 15.0874 16.6799 15.1768 16.6799H15.9124C16.008 16.6799 16.0923 16.7427 16.1199 16.8342L16.5575 18.2956L17.59 16.7748C17.6304 16.7154 17.6976 16.6799 17.7689 16.6799Z" fill="#253B80"/>
<path fill-rule="evenodd" clip-rule="evenodd" d="M25.8854 19.4124L26.5238 15.3504C26.5336 15.2874 26.5882 15.241 26.6517 15.2407H27.3704C27.4498 15.2407 27.5108 15.3119 27.4982 15.3906L26.8686 19.3795C26.8522 19.4848 26.7617 19.5621 26.6551 19.5621H26.0132C25.9338 19.5621 25.8729 19.4912 25.8854 19.4124ZM20.996 15.241H19.4401C19.3339 15.241 19.2434 15.3183 19.2267 15.4234L18.5976 19.4124C18.585 19.4912 18.646 19.5621 18.7255 19.5621H19.5238C19.598 19.5621 19.6615 19.508 19.673 19.4343L19.8516 18.3036C19.868 18.1982 19.9587 18.121 20.0649 18.121H20.5572C21.5821 18.121 22.1734 17.6251 22.328 16.6424C22.3978 16.2125 22.3307 15.8747 22.1295 15.6381C21.9085 15.3784 21.5166 15.241 20.996 15.241ZM21.1755 16.6979C21.0906 17.2561 20.6641 17.2561 20.2515 17.2561H20.0169L20.1819 16.2136C20.1917 16.1506 20.2458 16.1042 20.3097 16.1042H20.4173C20.698 16.1042 20.9633 16.1042 21.1001 16.2643C21.1818 16.3599 21.2066 16.5018 21.1755 16.6979ZM25.6457 16.68H24.9013C24.8373 16.68 24.783 16.7264 24.7734 16.7895L24.7404 16.9978L24.6881 16.9223C24.5268 16.6882 24.1675 16.61 23.8085 16.61C22.9853 16.61 22.2824 17.2335 22.1455 18.1081C22.0745 18.5443 22.1753 18.9615 22.4227 19.2524C22.6502 19.5199 22.9746 19.6314 23.3611 19.6314C24.0243 19.6314 24.3921 19.2049 24.3921 19.2049L24.359 19.4119C24.3464 19.4911 24.4074 19.562 24.4873 19.562H25.158C25.2642 19.562 25.3547 19.4847 25.3714 19.3794L25.7742 16.8297C25.7865 16.7513 25.7256 16.68 25.6457 16.68ZM24.6074 18.1299C24.5359 18.5555 24.1977 18.8412 23.7668 18.8412C23.551 18.8412 23.3777 18.7718 23.2666 18.6403C23.1565 18.5098 23.1152 18.3239 23.1498 18.117C23.2173 17.695 23.5603 17.4 23.9845 17.4C24.1961 17.4 24.368 17.4702 24.4814 17.6029C24.5953 17.7369 24.6403 17.9238 24.6074 18.1299Z" fill="#179BD7"/>
<path d="M15.657 13.814L15.8483 12.5992L15.4223 12.5893H13.3881L14.8018 3.62547C14.8061 3.59841 14.8204 3.57317 14.8412 3.55526C14.8621 3.53734 14.8888 3.52747 14.9166 3.52747H18.3466C19.4854 3.52747 20.2712 3.76443 20.6815 4.23212C20.8738 4.45153 20.9963 4.68081 21.0556 4.93312C21.1177 5.1979 21.1188 5.5142 21.0581 5.9L21.0537 5.92815V6.1753L21.2461 6.2843C21.4081 6.37025 21.5367 6.4686 21.6355 6.58125C21.8001 6.7688 21.9065 7.00725 21.9515 7.2899C21.9979 7.5806 21.9825 7.92655 21.9065 8.3182C21.8187 8.7687 21.6768 9.1611 21.4853 9.48215C21.3089 9.778 21.0844 10.0233 20.8179 10.2135C20.5634 10.3942 20.2609 10.5313 19.919 10.6191C19.5877 10.7053 19.21 10.7489 18.7957 10.7489H18.5287C18.3379 10.7489 18.1524 10.8176 18.0069 10.9409C17.861 11.0667 17.7644 11.2385 17.7348 11.4265L17.7147 11.5358L17.3768 13.6768L17.3615 13.7554C17.3575 13.7804 17.3505 13.7928 17.3403 13.8012C17.3311 13.8088 17.318 13.814 17.3051 13.814H15.657Z" fill="#253B80"/>
<path d="M21.4282 5.95679C21.418 6.02224 21.4063 6.08914 21.3931 6.15789C20.9407 8.48029 19.3932 9.28259 17.4167 9.28259H16.4104C16.1687 9.28259 15.965 9.45814 15.9273 9.69654L15.412 12.9643L15.2661 13.8905C15.2416 14.047 15.3624 14.1881 15.5203 14.1881H17.3052C17.5166 14.1881 17.6961 14.0346 17.7293 13.8261L17.7469 13.7354L18.083 11.6028L18.1046 11.4858C18.1374 11.2767 18.3173 11.1231 18.5287 11.1231H18.7956C20.5249 11.1231 21.8787 10.421 22.2744 8.38924C22.4396 7.54054 22.3541 6.83184 21.9167 6.33344C21.7844 6.18314 21.6202 6.05844 21.4282 5.95679Z" fill="#179BD7"/>
<path d="M20.9548 5.76818C20.8858 5.74808 20.8144 5.72978 20.7413 5.71333C20.6678 5.69723 20.5924 5.68298 20.5149 5.67053C20.2436 5.62668 19.9463 5.60583 19.6278 5.60583H16.9394C16.8732 5.60583 16.8103 5.62078 16.754 5.64788C16.63 5.70748 16.5379 5.82488 16.5156 5.96858L15.9436 9.59098L15.9271 9.69663C15.9648 9.45823 16.1685 9.28268 16.4102 9.28268H17.4165C19.3931 9.28268 20.9406 8.48003 21.393 6.15798C21.4064 6.08923 21.4178 6.02233 21.428 5.95688C21.3136 5.89618 21.1896 5.84423 21.0561 5.79998C21.0233 5.78903 20.9893 5.77843 20.9548 5.76818Z" fill="#222D65"/>
<path d="M16.5156 5.96855C16.5379 5.82485 16.6301 5.70745 16.754 5.6482C16.8108 5.62115 16.8733 5.60615 16.9394 5.60615H19.6279C19.9464 5.60615 20.2437 5.627 20.515 5.6709C20.5925 5.6833 20.6679 5.69755 20.7414 5.71365C20.8145 5.7301 20.8858 5.7484 20.955 5.7685C20.9893 5.77875 21.0233 5.78935 21.0566 5.79995C21.19 5.8442 21.314 5.8965 21.4284 5.95685C21.5631 5.0986 21.4274 4.51424 20.9634 3.9851C20.4518 3.40259 19.5284 3.1532 18.347 3.1532H14.9169C14.6755 3.1532 14.4697 3.32871 14.4323 3.5675L13.0037 12.6235C12.9755 12.8026 13.1137 12.9643 13.2943 12.9643H15.412L15.9437 9.59095L16.5156 5.96855Z" fill="#253B80"/>
</svg>
