<svg width="35" height="24" viewBox="0 0 35 24" fill="none" xmlns="http://www.w3.org/2000/svg">
<path d="M10.8277 5.00073H16.3435C17.1134 5.00073 17.5923 5.62828 17.4127 6.40078L14.8447 17.4262C14.6635 18.196 13.8926 18.8241 13.1221 18.8241H7.60689C6.83799 18.8241 6.35804 18.196 6.53769 17.4262L9.10674 6.40078C9.28634 5.62828 10.0568 5.00073 10.8277 5.00073Z" fill="#E21836"/>
<path d="M15.8843 5H22.2273C22.9971 5 22.65 5.6276 22.4689 6.4001L19.9013 17.4254C19.7212 18.1952 19.7774 18.8234 19.0059 18.8234H12.6629C11.8915 18.8234 11.4141 18.1952 11.5953 17.4254L14.1628 6.4001C14.3451 5.6276 15.114 5 15.8843 5Z" fill="#00447C"/>
<path d="M21.9757 5H27.4915C28.2625 5 28.7414 5.6276 28.5603 6.4001L25.9927 17.4254C25.8115 18.1952 25.04 18.8234 24.2691 18.8234H18.7559C17.9845 18.8234 17.506 18.1952 17.6867 17.4254L20.2547 6.4001C20.4343 5.6276 21.2043 5 21.9757 5Z" fill="#007B84"/>
<path d="M12.268 8.53324C11.7008 8.53904 11.5333 8.53324 11.4798 8.52059C11.4592 8.61834 11.0765 10.384 11.0754 10.3855C10.993 10.7427 10.933 10.9973 10.7293 11.1617C10.6137 11.2573 10.4787 11.3034 10.3222 11.3034C10.0707 11.3034 9.92417 11.1785 9.89957 10.9416L9.89482 10.8603C9.89482 10.8603 9.97147 10.3818 9.97147 10.3791C9.97147 10.3791 10.3732 8.77014 10.4451 8.55744C10.4489 8.54534 10.45 8.53904 10.4509 8.53324C9.66897 8.54009 9.53037 8.53324 9.52082 8.52059C9.51557 8.53794 9.49622 8.63769 9.49622 8.63769L9.08602 10.4512L9.05082 10.605L8.98267 11.1081C8.98267 11.2573 9.01197 11.3791 9.07032 11.4821C9.25717 11.8087 9.79022 11.8576 10.0918 11.8576C10.4803 11.8576 10.8448 11.775 11.0911 11.6243C11.5186 11.3717 11.6305 10.9769 11.7303 10.626L11.7765 10.446C11.7765 10.446 12.1903 8.77484 12.2606 8.55744C12.2633 8.54534 12.2644 8.53904 12.268 8.53324ZM13.676 9.88134C13.5762 9.88134 13.3939 9.90554 13.2302 9.98584C13.1708 10.0163 13.1146 10.0515 13.0553 10.0866L13.1088 9.89344L13.0795 9.86094C12.7322 9.93124 12.6545 9.94064 12.3337 9.98584L12.3068 10.0037C12.2696 10.3125 12.2365 10.5447 12.0985 11.1517C12.0459 11.3754 11.9913 11.6013 11.9366 11.8244L11.9514 11.8528C12.2801 11.8355 12.3798 11.8355 12.6655 11.8402L12.6887 11.815C12.725 11.6291 12.7297 11.5855 12.8101 11.209C12.8478 11.0304 12.9266 10.6381 12.9655 10.4984C13.0369 10.4654 13.1073 10.4328 13.1745 10.4328C13.3347 10.4328 13.3152 10.5725 13.309 10.6282C13.3021 10.7216 13.2438 11.0268 13.1839 11.2888L13.144 11.458C13.1162 11.5829 13.0857 11.7043 13.0578 11.8281L13.0699 11.8528C13.3939 11.8355 13.4928 11.8355 13.7694 11.8402L13.802 11.815C13.852 11.5246 13.8666 11.4469 13.9554 11.0241L14 10.8298C14.0867 10.4496 14.1303 10.2568 14.0647 10.0998C13.9953 9.92384 13.8289 9.88134 13.676 9.88134ZM15.2489 10.2794C15.0767 10.3125 14.9668 10.3345 14.8576 10.3488C14.7494 10.3661 14.6439 10.3819 14.4774 10.405L14.4643 10.417L14.4522 10.4265C14.4348 10.5505 14.4227 10.6576 14.3997 10.7836C14.3802 10.9139 14.3503 11.0619 14.3015 11.2746C14.2637 11.4374 14.2442 11.4941 14.2227 11.5514C14.2017 11.6087 14.1786 11.6643 14.1361 11.8244L14.146 11.8392L14.1544 11.8528C14.3099 11.8454 14.4117 11.8402 14.5163 11.8392C14.6208 11.8355 14.729 11.8392 14.8965 11.8402L14.9112 11.8282L14.9269 11.815C14.9511 11.6706 14.9547 11.6318 14.9695 11.5613C14.9842 11.4858 15.0094 11.3812 15.0714 11.1018C15.1007 10.9706 15.1334 10.8398 15.1638 10.7059C15.1954 10.5725 15.2284 10.4412 15.2599 10.3099L15.2552 10.2941L15.2489 10.2794ZM15.2525 9.74269C15.0961 9.65034 14.8214 9.67964 14.6365 9.80724C14.4522 9.93229 14.4312 10.1097 14.5872 10.2033C14.741 10.2931 15.0167 10.2663 15.2 10.1377C15.3839 10.01 15.4069 9.83414 15.2525 9.74269ZM16.199 11.8817C16.5156 11.8817 16.8401 11.7945 17.0844 11.5356C17.2723 11.3256 17.3585 11.0131 17.3884 10.8844C17.4856 10.458 17.4099 10.2589 17.3148 10.1376C17.1704 9.95279 16.9153 9.89349 16.6505 9.89349C16.4914 9.89349 16.1122 9.90924 15.8161 10.1823C15.6034 10.3792 15.5051 10.6465 15.4458 10.9027C15.386 11.1638 15.3171 11.6338 15.7494 11.8087C15.8827 11.866 16.075 11.8817 16.199 11.8817ZM16.1742 10.9222C16.2472 10.5993 16.3334 10.3283 16.5533 10.3283C16.7257 10.3283 16.7382 10.5299 16.6616 10.8539C16.6479 10.9259 16.5849 11.1933 16.4998 11.3071C16.4404 11.3912 16.3701 11.4421 16.2924 11.4421C16.2693 11.4421 16.1317 11.4421 16.1296 11.2379C16.1285 11.1371 16.1491 11.0341 16.1742 10.9222ZM18.1798 11.8402L18.2046 11.8151C18.2397 11.6291 18.2454 11.5854 18.3231 11.209C18.362 11.0305 18.4424 10.6382 18.4802 10.4985C18.5517 10.4653 18.6209 10.4327 18.6903 10.4327C18.8494 10.4327 18.83 10.5724 18.8237 10.6281C18.8179 10.7217 18.7595 11.0267 18.6986 11.2887L18.6609 11.4579C18.632 11.5829 18.6005 11.7042 18.5727 11.8281L18.5848 11.8529C18.9099 11.8355 19.0049 11.8355 19.2832 11.8402L19.3168 11.8151C19.3656 11.5245 19.3788 11.4468 19.4702 11.0241L19.5138 10.8297C19.6009 10.4495 19.645 10.2569 19.5805 10.0999C19.5091 9.92389 19.3415 9.88139 19.1908 9.88139C19.0909 9.88139 18.9077 9.90549 18.7449 9.98584C18.6867 10.0164 18.6283 10.0515 18.5711 10.0867L18.6209 9.89349L18.5942 9.86084C18.2471 9.93129 18.1677 9.94069 17.8474 9.98584L17.8228 10.0037C17.7839 10.3125 17.7523 10.5446 17.6142 11.1517C17.5617 11.3754 17.5071 11.6013 17.4525 11.8245L17.4671 11.8529C17.7964 11.8355 17.8947 11.8355 18.1798 11.8402ZM20.5683 11.8528C20.5887 11.753 20.7101 11.1617 20.7112 11.1617C20.7112 11.1617 20.8146 10.7279 20.8209 10.7122C20.8209 10.7122 20.8534 10.667 20.886 10.6491H20.9338C21.3854 10.6491 21.8954 10.6491 22.2951 10.3551C22.567 10.1534 22.753 9.85564 22.8359 9.49374C22.8574 9.40499 22.8733 9.29949 22.8733 9.19394C22.8733 9.05534 22.8455 8.91819 22.7651 8.81104C22.5612 8.52589 22.1554 8.52064 21.6868 8.51849C21.6854 8.51849 21.4559 8.52064 21.4559 8.52064C20.8561 8.52804 20.6156 8.52589 20.5168 8.51379C20.5084 8.55749 20.4927 8.63519 20.4927 8.63519C20.4927 8.63519 20.2779 9.63089 20.2779 9.63249C20.2779 9.63249 19.7638 11.7494 19.7396 11.8492C20.2632 11.8428 20.4779 11.8428 20.5683 11.8528ZM20.9664 10.0841C20.9664 10.0841 21.1948 9.09039 21.1937 9.09419L21.2011 9.04324L21.2043 9.00434L21.2956 9.01379C21.2956 9.01379 21.7667 9.05424 21.7777 9.05534C21.9636 9.12724 22.0403 9.31264 21.9868 9.55464C21.938 9.77579 21.7945 9.96174 21.6102 10.0515C21.4584 10.1276 21.2725 10.1339 21.0809 10.1339H20.9569L20.9664 10.0841ZM22.3885 10.9406C22.3282 11.198 22.2588 11.668 22.6889 11.8355C22.826 11.8938 22.9489 11.9112 23.0738 11.9049C23.2057 11.8977 23.3279 11.8316 23.4411 11.7364C23.4309 11.7755 23.4207 11.8146 23.4104 11.8539L23.4299 11.879C23.7393 11.866 23.8353 11.866 24.1704 11.8686L24.2008 11.8454C24.2498 11.5577 24.2959 11.2784 24.4231 10.7279C24.485 10.4643 24.5469 10.2032 24.6105 9.94064L24.6005 9.91174C24.2545 9.97589 24.162 9.98959 23.8291 10.0368L23.8038 10.0573C23.8005 10.0841 23.797 10.1098 23.7937 10.1355C23.742 10.0518 23.667 9.98044 23.5512 9.93594C23.4032 9.87774 23.0555 9.95274 22.7566 10.2249C22.5466 10.4191 22.4458 10.6853 22.3885 10.9406ZM23.1153 10.9564C23.1894 10.6392 23.2745 10.3709 23.495 10.3709C23.6344 10.3709 23.7078 10.4995 23.6929 10.7189C23.6811 10.7737 23.6683 10.8313 23.6531 10.8965C23.6311 10.9908 23.6071 11.0842 23.5839 11.1778C23.5602 11.2418 23.5326 11.3021 23.5024 11.3423C23.4457 11.4227 23.3107 11.4726 23.233 11.4726C23.2109 11.4726 23.0749 11.4726 23.0702 11.272C23.0691 11.1721 23.0897 11.0693 23.1153 10.9564ZM26.9107 9.90919L26.884 9.87869C26.5415 9.94804 26.4796 9.95909 26.165 10.0015L26.1418 10.0247C26.1408 10.0284 26.1398 10.0342 26.1382 10.0395L26.1371 10.0342C25.9029 10.5745 25.9098 10.458 25.7192 10.8833C25.7181 10.864 25.7181 10.8519 25.717 10.8313L25.6693 9.90919L25.6393 9.87869C25.2806 9.94804 25.2721 9.95909 24.9409 10.0015L24.9151 10.0247C24.9114 10.0357 24.9114 10.0478 24.9093 10.061L24.9114 10.0657C24.9528 10.2773 24.9429 10.2301 24.9844 10.564C25.0038 10.7279 25.0296 10.8928 25.049 11.0546C25.0816 11.3255 25.0999 11.4589 25.1398 11.8723C24.9161 12.2415 24.8632 12.3812 24.6478 12.7052L24.6493 12.7084L24.4976 12.9482C24.4803 12.9735 24.4645 12.9909 24.4425 12.9983C24.4183 13.0102 24.3868 13.0124 24.3431 13.0124H24.2591L24.1342 13.4278L24.5627 13.4352C24.8142 13.4341 24.9723 13.3165 25.0574 13.1584L25.3269 12.6967H25.3226L25.3509 12.6642C25.5321 12.274 26.9107 9.90919 26.9107 9.90919ZM22.3885 15.3652H22.2068L22.8795 13.14H23.1027L23.1735 12.9108L23.1804 13.1657C23.1721 13.3233 23.296 13.463 23.6216 13.4398H23.9982L24.1278 13.0114H23.9861C23.9046 13.0114 23.8669 12.9908 23.8716 12.9467L23.8647 12.6874H23.1674V12.6887C22.9419 12.6934 22.2686 12.7104 22.1323 12.7467C21.9673 12.7891 21.7935 12.9142 21.7935 12.9142L21.8618 12.6847H21.2095L21.0735 13.14L20.3918 15.3992H20.2595L20.1298 15.8246H21.429L21.3855 15.9664H22.0257L22.0682 15.8246H22.2478L22.3885 15.3652ZM21.8555 13.5922C21.751 13.6211 21.5566 13.7087 21.5566 13.7087L21.7295 13.14H22.2478L22.1227 13.5544C22.1227 13.5544 21.9626 13.5638 21.8555 13.5922ZM21.8654 14.4046C21.8654 14.4046 21.7026 14.425 21.5955 14.4492C21.4899 14.4812 21.292 14.5821 21.292 14.5821L21.4706 13.9902H21.9915L21.8654 14.4046ZM21.575 15.3704H21.0551L21.2058 14.871H21.7241L21.575 15.3704ZM22.827 13.9902H23.5764L23.4687 14.339H22.7094L22.5954 14.7203H23.2598L22.7567 15.4286C22.7215 15.4807 22.6899 15.4991 22.6548 15.5137C22.6196 15.5316 22.5733 15.5526 22.5198 15.5526H22.3355L22.2089 15.9702H22.691C22.9416 15.9702 23.0896 15.8562 23.1989 15.7065L23.5439 15.2344L23.618 15.7138C23.6337 15.8036 23.6982 15.8562 23.7419 15.8766C23.7902 15.9008 23.8401 15.9424 23.9105 15.9485C23.9861 15.9518 24.0406 15.9543 24.0769 15.9543H24.3138L24.4561 15.487H24.3626C24.309 15.487 24.2166 15.478 24.2009 15.4612C24.1852 15.4407 24.1852 15.4093 24.1767 15.3614L24.1015 14.8809H23.7938L23.9288 14.7203H24.6866L24.8032 14.339H24.1015L24.2108 13.9902H24.9104L25.0401 13.5602H22.9546L22.827 13.9902ZM16.4977 15.4675L16.6726 14.8857H17.3915L17.5228 14.4529H16.8033L16.9131 14.0947H17.6163L17.7465 13.6757H15.9872L15.8596 14.0947H16.2593L16.1527 14.4529H15.752L15.6191 14.8931H16.0187L15.7856 15.6629C15.7541 15.7648 15.8004 15.8036 15.8297 15.851C15.8596 15.8971 15.89 15.9276 15.9583 15.9449C16.0288 15.9607 16.077 15.9701 16.1426 15.9701H16.9531L17.0975 15.4907L16.7382 15.54C16.6689 15.54 16.4767 15.5317 16.4977 15.4675ZM16.5802 12.6821L16.398 13.0113C16.359 13.0832 16.3239 13.1279 16.2923 13.1484C16.2645 13.1658 16.2094 13.173 16.1295 13.173H16.0345L15.9074 13.5942H16.2231C16.3749 13.5942 16.4914 13.5386 16.5471 13.5108C16.6069 13.4788 16.6226 13.497 16.6689 13.4524L16.7755 13.36H17.7612L17.8921 12.9215H17.1705L17.2965 12.6821H16.5802ZM18.0354 15.476C18.0186 15.4518 18.0307 15.4092 18.0564 15.3204L18.3258 14.4287H19.2843C19.4239 14.4267 19.5248 14.4251 19.5904 14.4204C19.6608 14.413 19.7375 14.3878 19.821 14.3426C19.9071 14.2953 19.9512 14.2454 19.9885 14.1882C20.03 14.131 20.0967 14.006 20.154 13.8132L20.4926 12.6847L19.498 12.6905C19.498 12.6905 19.1918 12.7357 19.0569 12.7855C18.9209 12.8412 18.7265 12.9966 18.7265 12.9966L18.8163 12.6873H18.2019L17.3417 15.54C17.3112 15.6508 17.2907 15.7312 17.286 15.7794C17.2844 15.8315 17.3517 15.883 17.3952 15.9218C17.4467 15.9607 17.5228 15.9543 17.5958 15.9607C17.6726 15.9664 17.7817 15.9701 17.9324 15.9701H18.4046L18.5495 15.4807L18.1268 15.5206C18.0817 15.5206 18.049 15.4964 18.0354 15.476ZM18.4997 13.8264H19.5064L19.4424 14.027C19.4334 14.0317 19.4118 14.017 19.3094 14.0291H18.4377L18.4997 13.8264ZM18.7013 13.1536H19.7165L19.6435 13.3952C19.6435 13.3952 19.165 13.3905 19.0884 13.4046C18.7512 13.463 18.5542 13.6431 18.5542 13.6431L18.7013 13.1536ZM19.4649 14.6987C19.4566 14.7287 19.4434 14.747 19.425 14.7607C19.4045 14.7738 19.3715 14.7786 19.3221 14.7786H19.1787L19.1871 14.5343H18.5905L18.5663 15.7285C18.5653 15.8147 18.5737 15.8646 18.6367 15.9045C18.6998 15.9544 18.8941 15.9607 19.1555 15.9607H19.5294L19.6644 15.5137L19.3389 15.5316L19.2307 15.5379C19.2159 15.5316 19.2018 15.5258 19.1861 15.5101C19.1724 15.4965 19.1492 15.5048 19.153 15.4186L19.1555 15.1125L19.4969 15.0984C19.6812 15.0984 19.76 15.0384 19.8272 14.9813C19.8914 14.9266 19.9123 14.8637 19.9365 14.7786L19.9938 14.5075H19.5247L19.4649 14.6987Z" fill="#FEFEFE"/>
</svg>
