<svg width="35" height="24" viewBox="0 0 35 24" fill="none" xmlns="http://www.w3.org/2000/svg">
<path fill-rule="evenodd" clip-rule="evenodd" d="M15.1344 12.4691H14.0255V12.0339C14.0255 11.4679 14.3489 11.3059 14.6278 11.3059C14.9356 11.3059 15.1754 11.4425 15.1754 11.4425L15.5529 10.5797C15.5529 10.5797 15.1701 10.3296 14.4745 10.3296C13.6923 10.3296 12.8025 10.7705 12.8025 12.1544V12.4691H10.9459V12.0339C10.9459 11.4679 11.2693 11.3059 11.5477 11.3059C11.7062 11.3059 11.9195 11.3428 12.0958 11.4425L12.4733 10.5797C12.2479 10.4471 11.886 10.3296 11.3949 10.3296C10.6128 10.3296 9.7229 10.7705 9.7229 12.1544V12.4691H9.0128V13.4131H9.7229V16.7486H10.9459V13.4131H12.8025V16.7486H14.0255V13.4131H15.1344V12.4691ZM6.2049 15.9808C5.8833 15.9808 5.72305 15.8228 5.72305 15.5617C5.72305 15.0787 6.2637 14.9133 7.25045 14.809C7.25045 15.4551 6.81355 15.9808 6.2049 15.9808ZM6.63025 12.3433C5.92535 12.3433 5.11385 12.6758 4.67348 13.0269L5.0758 13.8735C5.4291 13.5502 6.0003 13.2741 6.51555 13.2741C7.0049 13.2741 7.2752 13.4378 7.2752 13.7669C7.2752 13.9894 7.09595 14.1012 6.75705 14.145C5.4925 14.3099 4.5 14.6586 4.5 15.6338C4.5 16.4067 5.05045 16.8747 5.9104 16.8747C6.52365 16.8747 7.07005 16.5335 7.33 16.0833V16.7485H8.4735V13.9617C8.4735 12.8107 7.6735 12.3433 6.63025 12.3433ZM18.1139 12.469V16.7486H19.3382V14.6869C19.3382 13.7065 19.9312 13.4189 20.3451 13.4189C20.5065 13.4189 20.7243 13.4656 20.8684 13.5734L21.0914 12.442C20.9024 12.3613 20.7047 12.3434 20.5427 12.3434C19.9133 12.3434 19.5179 12.6224 19.2568 13.1884V12.469H18.1139ZM25.3832 13.0951C25.6351 12.7262 26.1186 12.3435 26.7659 12.3435C27.548 12.3435 28.1954 12.8288 28.1954 13.7908V16.7487H26.9722V14.1775C26.9722 13.6109 26.6311 13.3758 26.3077 13.3758C25.9031 13.3758 25.4985 13.7458 25.4985 14.5458V16.7487H24.2754V14.1862C24.2754 13.6023 23.9538 13.3758 23.604 13.3758C23.2172 13.3758 22.8034 13.7545 22.8034 14.5458V16.7487H21.5786V12.4692H22.7584V13.1164C22.9653 12.7032 23.4132 12.3435 24.0604 12.3435C24.6535 12.3435 25.1492 12.6184 25.3832 13.0951ZM17.0866 16.7488H15.8647V12.4692H17.0866V16.7488Z" fill="#060809"/>
<path fill-rule="evenodd" clip-rule="evenodd" d="M22.9933 6.5C19.6896 6.5 16.7449 8.7934 15.9092 11.7421H17.1069C17.8049 9.5461 20.1743 7.61875 22.9933 7.61875C26.4199 7.61875 29.3812 10.2274 29.3812 14.2885C29.3812 15.2003 29.2631 16.0222 29.0395 16.7484H30.2014L30.2129 16.7087C30.4032 15.9594 30.5 15.1455 30.5 14.2885C30.5 9.75935 27.1997 6.5 22.9933 6.5Z" fill="#0FA0EA"/>
</svg>
