<svg width="35" height="24" viewBox="0 0 35 24" fill="none" xmlns="http://www.w3.org/2000/svg">
<path fill-rule="evenodd" clip-rule="evenodd" d="M19.9107 11.488H21.0566C21.4199 11.4749 21.6409 11.4469 21.7204 11.4031C21.8291 11.3433 21.902 11.2235 21.9383 11.0438C21.9615 10.9242 21.9731 10.7464 21.9731 10.5102C21.9731 10.2208 21.95 10.0064 21.9037 9.8663C21.8376 9.6701 21.6793 9.55055 21.4284 9.50715C21.3789 9.5006 21.2602 9.4971 21.0721 9.4971H19.9107V11.488ZM18.0725 14.8414V8H21.4971C21.9668 8 22.3252 8.03845 22.5715 8.1152C23.1347 8.292 23.5126 8.65395 23.7062 9.201C23.8061 9.4881 23.8561 9.92035 23.8561 10.4975C23.8561 11.1915 23.8007 11.6902 23.691 11.9938C23.4714 12.5942 23.0192 12.9401 22.3365 13.0297C22.2562 13.0432 21.9146 13.0552 21.3116 13.0648L21.0065 13.0751H19.9106V14.8414H18.0725ZM8.8426 10.1824H10.5526C10.5637 10.0312 10.5692 9.9182 10.5692 9.84255C10.5692 8.9207 10.1972 8.3597 9.453 8.15945C9.1481 8.0775 8.6366 8.0362 7.9189 8.0362C7.46305 8.0362 7.04855 8.05285 6.67495 8.0855C6.22595 8.12165 5.8571 8.24275 5.5688 8.449C5.37205 8.5834 5.22945 8.77985 5.14095 9.03865C5.05255 9.29735 5.0083 9.6413 5.0083 10.0702C5.0083 10.6334 5.09015 11.0545 5.2538 11.3328C5.43995 11.6603 5.8131 11.8761 6.37295 11.981C6.58555 12.0174 6.9652 12.055 7.51175 12.0941C8.19235 12.14 8.57365 12.1762 8.6556 12.2022C8.87475 12.2679 8.98455 12.4511 8.98455 12.7523C8.98455 12.8868 8.97155 12.9967 8.94535 13.0816C8.89605 13.2196 8.7929 13.3192 8.6357 13.3812C8.5474 13.4142 8.34265 13.4306 8.0218 13.4306H7.3932C7.2258 13.4269 7.08345 13.3962 6.96555 13.3375C6.79545 13.2524 6.7102 13.0614 6.7102 12.7643L6.7101 12.7152L6.71 12.622H5C5 13.1787 5.0407 13.5764 5.1229 13.8152C5.27045 14.2441 5.57535 14.5289 6.03785 14.6695C6.4147 14.7843 7.08215 14.8414 8.0398 14.8414C8.6135 14.8414 9.04005 14.8151 9.31885 14.7625C9.9844 14.6381 10.4121 14.3418 10.6025 13.8728C10.7076 13.6171 10.76 13.2138 10.76 12.663C10.76 12.4241 10.7486 12.209 10.7256 12.019C10.6862 11.7013 10.5628 11.444 10.3559 11.2471C10.093 10.9948 9.66925 10.8391 9.0848 10.7801C8.9007 10.7604 8.4391 10.7258 7.7 10.6766L7.35515 10.6522C7.20375 10.6424 7.0824 10.6097 6.9905 10.5539C6.8622 10.4753 6.79825 10.3112 6.79825 10.0622C6.79825 9.78705 6.8705 9.60835 7.01485 9.5262C7.15925 9.44425 7.45525 9.40335 7.90165 9.40335C8.36135 9.40335 8.64225 9.47445 8.744 9.61655C8.80965 9.7126 8.8426 9.90125 8.8426 10.1824ZM5.0065 16.1982L5.26285 16.1723C5.27825 16.2589 5.3096 16.3224 5.3567 16.363C5.40395 16.4036 5.4676 16.4238 5.5477 16.4238C5.63255 16.4238 5.69645 16.4059 5.73955 16.3698C5.78255 16.3337 5.804 16.2915 5.804 16.2432C5.804 16.2123 5.79495 16.186 5.777 16.1642C5.7589 16.1424 5.72745 16.1236 5.68245 16.1074C5.6516 16.0969 5.5815 16.0779 5.47205 16.0507C5.3311 16.0158 5.23235 15.9728 5.1755 15.9218C5.09565 15.8501 5.0557 15.7626 5.0557 15.6594C5.0557 15.5931 5.0745 15.5308 5.1122 15.4731C5.14985 15.4152 5.2042 15.3712 5.27505 15.341C5.34595 15.3108 5.43155 15.2956 5.5318 15.2956C5.69555 15.2956 5.81875 15.3316 5.9015 15.4037C5.9843 15.4759 6.0277 15.5721 6.03185 15.6924L5.7678 15.7028C5.7565 15.6356 5.7323 15.5873 5.6952 15.5577C5.65815 15.5282 5.60255 15.5134 5.5284 15.5134C5.45185 15.5134 5.392 15.5292 5.3487 15.5608C5.32075 15.5809 5.30685 15.608 5.30685 15.6419C5.30685 15.6728 5.31995 15.6992 5.34605 15.7212C5.3792 15.7491 5.4598 15.7783 5.5879 15.8084C5.7159 15.8387 5.8106 15.8699 5.872 15.9024C5.93335 15.9349 5.9814 15.9793 6.0161 16.0356C6.05075 16.092 6.06815 16.1616 6.06815 16.2444C6.06815 16.3196 6.04735 16.3899 6.00575 16.4555C5.96415 16.5211 5.9054 16.5697 5.82945 16.6017C5.75345 16.6335 5.65875 16.6495 5.5453 16.6495C5.38025 16.6495 5.2535 16.6111 5.165 16.5343C5.0766 16.4574 5.0237 16.3454 5.0065 16.1982ZM6.3419 15.6795H6.59305V16.6262H6.3419V15.6795ZM6.3419 15.3189H6.59305V15.5498H6.3419V15.3189ZM7.51405 16.6261H7.7652V16.0366C7.7652 15.9634 7.76055 15.9071 7.75135 15.8679C7.74215 15.8285 7.72585 15.7934 7.7024 15.7625C7.67895 15.7315 7.6444 15.706 7.59875 15.6861C7.5531 15.6662 7.50265 15.6561 7.44745 15.6561C7.32235 15.6561 7.21845 15.7102 7.136 15.8186V15.6795H6.903V16.6261H7.15415V16.1964C7.15415 16.0903 7.16045 16.0178 7.1732 15.9785C7.18585 15.9392 7.2093 15.9076 7.2436 15.8838C7.2779 15.8599 7.3166 15.848 7.3598 15.848C7.39345 15.848 7.42225 15.8564 7.4462 15.873C7.47015 15.8897 7.4874 15.9132 7.4981 15.9432C7.5087 15.9732 7.51405 16.0395 7.51405 16.1419V16.6261ZM8.2731 16.1324C8.2731 16.2332 8.29235 16.3069 8.33095 16.3536C8.3695 16.4005 8.41705 16.4238 8.47365 16.4238C8.5342 16.4238 8.5854 16.3999 8.62725 16.3519C8.669 16.304 8.69 16.2328 8.69 16.1386C8.69 16.0403 8.6699 15.9673 8.6299 15.9195C8.5898 15.8719 8.53925 15.848 8.47805 15.848C8.41855 15.848 8.3695 15.8715 8.33095 15.9183C8.29235 15.9651 8.2731 16.0364 8.2731 16.1324ZM8.0479 16.6884L8.33265 16.7195C8.33745 16.7547 8.3485 16.779 8.3657 16.7923C8.3896 16.8112 8.4271 16.8207 8.4783 16.8207C8.54385 16.8207 8.593 16.8109 8.6258 16.7913C8.64775 16.7782 8.6645 16.7571 8.67585 16.7279C8.68355 16.707 8.68745 16.6688 8.68745 16.6129L8.6882 16.4746C8.6141 16.5756 8.52015 16.6261 8.40615 16.6261C8.27895 16.6261 8.1784 16.5723 8.10415 16.4646C8.0459 16.3793 8.0168 16.2733 8.0168 16.1465C8.0168 15.9874 8.0549 15.866 8.13125 15.7821C8.20755 15.6981 8.3025 15.6561 8.41595 15.6561C8.5329 15.6561 8.62945 15.7077 8.7055 15.8106V15.6795H8.9386V16.5305C8.9386 16.6424 8.9294 16.726 8.9109 16.7813C8.89255 16.8367 8.86665 16.8802 8.83335 16.9117C8.80005 16.9432 8.75565 16.968 8.70005 16.9858C8.64445 17.0037 8.5742 17.0126 8.48925 17.0126C8.32875 17.0126 8.2149 16.985 8.1477 16.9296C8.0805 16.8742 8.04695 16.804 8.04695 16.7189C8.04695 16.7106 8.0473 16.7004 8.0479 16.6884ZM9.49045 15.3189H9.2393V16.6262H9.49045V15.3189ZM10.3649 16.0737C10.3632 16 10.3444 15.944 10.3085 15.9056C10.2727 15.8672 10.2291 15.848 10.1777 15.848C10.1228 15.848 10.0774 15.8683 10.0416 15.9087C10.0057 15.9492 9.98815 16.0042 9.9887 16.0737H10.3649ZM10.352 16.3279L10.6006 16.3694C10.5684 16.4606 10.5176 16.5302 10.4483 16.5779C10.3789 16.6257 10.2921 16.6495 10.1879 16.6495C10.023 16.6495 9.9009 16.5955 9.82175 16.4875C9.7592 16.401 9.72795 16.2919 9.72795 16.1599C9.72795 16.0026 9.769 15.8791 9.8512 15.7899C9.9333 15.7007 10.0371 15.6561 10.1627 15.6561C10.3038 15.6561 10.415 15.7029 10.4966 15.7964C10.5781 15.8902 10.6171 16.0335 10.6135 16.2267H9.98435C9.98605 16.3012 10.0065 16.3592 10.0454 16.4007C10.0844 16.442 10.1329 16.4628 10.1911 16.4628C10.2306 16.4628 10.2639 16.4521 10.2908 16.4308C10.3178 16.4096 10.3382 16.3752 10.352 16.3279ZM11.4352 15.3189V16.6262H12.4269V16.4057H11.6994V16.0504H12.3519V15.8299H11.6994V15.5394H12.4011V15.3189H11.4352ZM13.3246 16.6261V16.4844C13.2901 16.5349 13.2448 16.5751 13.1885 16.6049C13.1323 16.6346 13.0729 16.6495 13.0104 16.6495C12.9467 16.6495 12.8897 16.6355 12.8391 16.6075C12.7886 16.5795 12.7519 16.5402 12.7293 16.4897C12.7067 16.4391 12.6954 16.3691 12.6954 16.2798V15.6795H12.9466V16.1148C12.9466 16.2481 12.9511 16.3298 12.9604 16.3598C12.9696 16.39 12.9863 16.4137 13.0107 16.4313C13.0351 16.4488 13.0659 16.4576 13.1033 16.4576C13.1461 16.4576 13.1845 16.4459 13.2183 16.4223C13.2521 16.3988 13.2753 16.3698 13.2878 16.3349C13.3002 16.3001 13.3065 16.2149 13.3065 16.0793V15.6795H13.5576V16.6261H13.3246ZM13.8584 16.6261H14.1096V16.3334C14.1096 16.1722 14.1166 16.0662 14.1306 16.0156C14.1446 15.9651 14.1638 15.9302 14.1883 15.9108C14.2127 15.8915 14.2425 15.8818 14.2777 15.8818C14.314 15.8818 14.3534 15.8955 14.3957 15.9228L14.4721 15.7036C14.4192 15.6719 14.3642 15.6561 14.3072 15.6561C14.2667 15.6561 14.2307 15.6666 14.1989 15.6874C14.1671 15.7083 14.1313 15.7505 14.0914 15.814V15.6795H13.8584V16.6261ZM14.8297 16.1528C14.8297 16.2471 14.852 16.3193 14.8966 16.3694C14.9413 16.4195 14.9963 16.4446 15.0619 16.4446C15.1273 16.4446 15.1823 16.4195 15.2266 16.3694C15.2709 16.3193 15.2931 16.2465 15.2931 16.1511C15.2931 16.058 15.2709 15.9863 15.2266 15.9362C15.1823 15.8861 15.1273 15.861 15.0619 15.861C14.9963 15.861 14.9413 15.8861 14.8966 15.9362C14.852 15.9863 14.8297 16.0586 14.8297 16.1528ZM14.5734 16.1394C14.5734 16.0559 14.5938 15.975 14.6348 15.8968C14.6758 15.8187 14.7338 15.759 14.8089 15.7178C14.884 15.6767 14.9679 15.6561 15.0606 15.6561C15.2036 15.6561 15.3209 15.7028 15.4124 15.7962C15.5038 15.8895 15.5495 16.0076 15.5495 16.1502C15.5495 16.2939 15.5033 16.4131 15.411 16.5077C15.3187 16.6022 15.2024 16.6495 15.0623 16.6495C14.9756 16.6495 14.8929 16.6298 14.8143 16.5905C14.7356 16.5511 14.6758 16.4934 14.6348 16.4173C14.5938 16.3412 14.5734 16.2487 14.5734 16.1394ZM16.6313 15.9129V15.5394H16.7583C16.8531 15.5394 16.916 15.5424 16.9474 15.5484C16.99 15.5562 17.0253 15.5756 17.0531 15.6067C17.0809 15.6378 17.0949 15.6774 17.0949 15.7253C17.0949 15.7642 17.0849 15.7983 17.0651 15.8276C17.0453 15.857 17.0179 15.8786 16.983 15.8924C16.948 15.9061 16.8788 15.9129 16.7752 15.9129H16.6313ZM16.3673 15.3189V16.6262H16.6314V16.1334H16.803C16.9221 16.1334 17.0131 16.1271 17.076 16.1146C17.1222 16.1045 17.1677 16.0839 17.2124 16.0526C17.2572 16.0214 17.2941 15.9784 17.3231 15.9238C17.3522 15.869 17.3667 15.8015 17.3667 15.7213C17.3667 15.6172 17.3415 15.5323 17.2911 15.4667C17.2406 15.4009 17.1781 15.3581 17.1033 15.3385C17.0547 15.3255 16.9502 15.3189 16.79 15.3189H16.3673ZM18.1558 16.1723C18.1237 16.1831 18.0731 16.1959 18.0038 16.2108C17.9345 16.2256 17.8892 16.2403 17.868 16.2547C17.8354 16.278 17.8192 16.3075 17.8192 16.3433C17.8192 16.3786 17.8321 16.4089 17.8581 16.4347C17.8842 16.4603 17.9174 16.4732 17.9577 16.4732C18.0027 16.4732 18.0456 16.4583 18.0865 16.4284C18.1167 16.4057 18.1365 16.378 18.146 16.3451C18.1524 16.3236 18.1558 16.2827 18.1558 16.2223V16.1723ZM17.8192 15.9674L17.5939 15.9258C17.6195 15.8341 17.6634 15.7663 17.7257 15.7222C17.7881 15.6782 17.8807 15.6561 18.0036 15.6561C18.1152 15.6561 18.1984 15.6694 18.253 15.6958C18.3076 15.7224 18.3461 15.756 18.3683 15.7968C18.3906 15.8375 18.4018 15.9125 18.4018 16.0215L18.3992 16.3144C18.3992 16.3978 18.4032 16.4594 18.4112 16.4989C18.4192 16.5385 18.4342 16.5809 18.4562 16.6261H18.2076C18.2009 16.6098 18.193 16.5854 18.1835 16.5532C18.1793 16.5385 18.1763 16.529 18.1747 16.5242C18.1319 16.566 18.0863 16.5973 18.0376 16.6182C17.989 16.639 17.9372 16.6495 17.882 16.6495C17.7848 16.6495 17.708 16.6229 17.652 16.57C17.596 16.517 17.568 16.4499 17.568 16.3689C17.568 16.3154 17.5808 16.2675 17.6062 16.2255C17.6318 16.1836 17.6676 16.1513 17.7136 16.129C17.7596 16.1068 17.826 16.0871 17.9127 16.0704C18.0296 16.0484 18.1106 16.028 18.1558 16.0089V15.9836C18.1558 15.9348 18.1439 15.9 18.12 15.8792C18.0961 15.8584 18.0511 15.848 17.9848 15.848C17.94 15.848 17.9051 15.8569 17.88 15.8745C17.8549 15.8922 17.8346 15.9232 17.8192 15.9674ZM18.8487 15.6795H18.5821L18.9425 16.6287C18.9275 16.6822 18.9061 16.7263 18.878 16.761C18.8499 16.7955 18.8067 16.8129 18.7482 16.8129C18.7166 16.8129 18.681 16.809 18.6416 16.8011L18.665 16.9974C18.7113 17.0076 18.7587 17.0126 18.8068 17.0126C18.8544 17.0126 18.8971 17.0076 18.9348 16.9974C18.9726 16.9873 19.0043 16.973 19.0302 16.9548C19.0561 16.9367 19.079 16.913 19.0989 16.8839C19.1188 16.8547 19.1397 16.8125 19.1618 16.757L19.5557 15.6795H19.2968L19.0754 16.3515L18.8487 15.6795ZM19.7515 15.6795H19.9819V15.8088C20.0647 15.707 20.1632 15.6561 20.2775 15.6561C20.3382 15.6561 20.3909 15.6686 20.4356 15.6936C20.4802 15.7186 20.5168 15.7565 20.5453 15.807C20.5869 15.7565 20.6319 15.7186 20.68 15.6936C20.7282 15.6686 20.7795 15.6561 20.8342 15.6561C20.9038 15.6561 20.9626 15.6702 21.0108 15.6986C21.0589 15.7267 21.0949 15.7684 21.1187 15.8232C21.1359 15.8636 21.1445 15.9291 21.1445 16.0196V16.6261H20.8933V16.0839C20.8933 15.9898 20.8847 15.9291 20.8676 15.9017C20.8444 15.8658 20.8088 15.848 20.7609 15.848C20.7258 15.848 20.6928 15.8587 20.662 15.8802C20.6312 15.9017 20.609 15.9331 20.5954 15.9745C20.5817 16.0159 20.5748 16.0812 20.5748 16.1705V16.6261H20.3237V16.1063C20.3237 16.0139 20.3193 15.9544 20.3104 15.9276C20.3015 15.9007 20.2877 15.8808 20.269 15.8677C20.2503 15.8546 20.225 15.848 20.1929 15.848C20.1544 15.848 20.1197 15.8584 20.0889 15.8793C20.0581 15.9002 20.036 15.9302 20.0226 15.9695C20.0093 16.0088 20.0026 16.074 20.0026 16.1651V16.6261H19.7515V15.6795ZM21.9531 15.9056C21.9891 15.944 22.0078 16 22.0096 16.0737H21.6335C21.6329 16.0042 21.6504 15.9492 21.6863 15.9087C21.722 15.8683 21.7675 15.848 21.8224 15.848C21.8737 15.848 21.9174 15.8672 21.9531 15.9056ZM22.2453 16.3694L21.9967 16.3279C21.983 16.3752 21.9626 16.4096 21.9355 16.4308C21.9085 16.4521 21.8753 16.4628 21.8358 16.4628C21.7775 16.4628 21.729 16.442 21.6901 16.4007C21.6512 16.3592 21.6308 16.3012 21.629 16.2267H22.2582C22.2618 16.0335 22.2227 15.8902 22.1412 15.7964C22.0597 15.7029 21.9485 15.6561 21.8074 15.6561C21.6818 15.6561 21.578 15.7007 21.4958 15.7899C21.4138 15.8791 21.3726 16.0026 21.3726 16.1599C21.3726 16.2919 21.4039 16.401 21.4664 16.4875C21.5456 16.5955 21.6677 16.6495 21.8326 16.6495C21.9368 16.6495 22.0236 16.6257 22.093 16.5779C22.1623 16.5302 22.213 16.4606 22.2453 16.3694ZM23.3759 16.6261H23.1247V16.1419C23.1247 16.0395 23.1193 15.9732 23.1088 15.9432C23.0981 15.9132 23.0808 15.8897 23.0569 15.873C23.0329 15.8564 23.0041 15.848 22.9704 15.848C22.9274 15.848 22.8886 15.8599 22.8544 15.8838C22.8201 15.9076 22.7966 15.9392 22.7838 15.9785C22.7712 16.0178 22.7648 16.0903 22.7648 16.1964V16.6261H22.5137V15.6795H22.7466V15.8186C22.8292 15.7102 22.933 15.6561 23.0581 15.6561C23.1133 15.6561 23.1638 15.6662 23.2094 15.6861C23.2551 15.706 23.2897 15.7315 23.3131 15.7625C23.3366 15.7934 23.3528 15.8285 23.362 15.8679C23.3713 15.9071 23.3759 15.9634 23.3759 16.0366V16.6261ZM24.1169 15.8792V15.6795H23.946V15.3423L23.6948 15.4901V15.6795H23.5809V15.8792H23.6948V16.2929C23.6948 16.3817 23.6974 16.4407 23.7028 16.4699C23.7092 16.511 23.7208 16.5436 23.7377 16.5677C23.7546 16.5918 23.781 16.6116 23.817 16.6267C23.853 16.6419 23.8934 16.6495 23.9383 16.6495C24.0115 16.6495 24.077 16.637 24.135 16.612L24.113 16.4179C24.0698 16.434 24.0369 16.4421 24.0141 16.4421C23.9978 16.4421 23.984 16.4378 23.9726 16.4295C23.9612 16.4211 23.9539 16.4105 23.9508 16.3977C23.9475 16.3849 23.946 16.3397 23.946 16.2621V15.8792H24.1169ZM24.2581 16.3591L24.5093 16.3201C24.5199 16.3685 24.5416 16.4052 24.5741 16.4303C24.6068 16.4555 24.6524 16.468 24.711 16.468C24.7757 16.468 24.8244 16.456 24.8569 16.4321C24.8789 16.4153 24.8899 16.3929 24.8899 16.3647C24.8899 16.3456 24.8839 16.3296 24.8719 16.3172C24.8593 16.3052 24.8313 16.2941 24.7877 16.2839C24.5848 16.239 24.4561 16.1981 24.402 16.1611C24.3267 16.11 24.2892 16.0387 24.2892 15.9476C24.2892 15.8653 24.3216 15.7962 24.3866 15.7402C24.4518 15.6842 24.5526 15.6561 24.6892 15.6561C24.8193 15.6561 24.9159 15.6771 24.9792 15.7191C25.0424 15.7611 25.086 15.8231 25.11 15.9051L24.8743 15.9492C24.8641 15.9124 24.8447 15.8841 24.8162 15.8645C24.7877 15.8448 24.747 15.835 24.6942 15.835C24.6276 15.835 24.5798 15.8443 24.551 15.863C24.5317 15.8761 24.5222 15.8931 24.5222 15.914C24.5222 15.932 24.5305 15.9473 24.5472 15.9599C24.5698 15.9766 24.6481 16.0002 24.7819 16.0308C24.9158 16.0613 25.0092 16.0987 25.0623 16.1429C25.1147 16.1878 25.141 16.2502 25.141 16.3303C25.141 16.4175 25.1048 16.4926 25.0324 16.5553C24.9599 16.6181 24.8529 16.6495 24.711 16.6495C24.5823 16.6495 24.4804 16.6234 24.4054 16.5714C24.3303 16.5191 24.2812 16.4485 24.2581 16.3591ZM26.4871 15.625L26.6696 16.1101H26.3108L26.4871 15.625ZM26.8695 16.6262H27.1539L26.6269 15.3189H26.3492L25.8437 16.6262H26.1232L26.2307 16.3305H26.7567L26.8695 16.6262ZM27.5849 16.6261H27.3338V15.6795H27.5668V15.814C27.6067 15.7505 27.6424 15.7083 27.6743 15.6874C27.706 15.6666 27.742 15.6561 27.7826 15.6561C27.8396 15.6561 27.8945 15.6719 27.9474 15.7036L27.871 15.9228C27.8287 15.8955 27.7894 15.8818 27.7531 15.8818C27.7178 15.8818 27.688 15.8915 27.6636 15.9108C27.6391 15.9302 27.6199 15.9651 27.606 16.0156C27.5919 16.0662 27.5849 16.1722 27.5849 16.3334V16.6261ZM28.6163 15.9056C28.6521 15.944 28.6709 16 28.6727 16.0737H28.2966C28.2959 16.0042 28.3136 15.9492 28.3494 15.9087C28.3852 15.8683 28.4305 15.848 28.4856 15.848C28.5369 15.848 28.5804 15.8672 28.6163 15.9056ZM28.9084 16.3694L28.6598 16.3279C28.646 16.3752 28.6256 16.4096 28.5986 16.4308C28.5716 16.4521 28.5384 16.4628 28.4988 16.4628C28.4407 16.4628 28.3922 16.442 28.3531 16.4007C28.3143 16.3592 28.2939 16.3012 28.2921 16.2267H28.9213C28.9248 16.0335 28.8858 15.8902 28.8044 15.7964C28.7228 15.7029 28.6115 15.6561 28.4705 15.6561C28.3449 15.6561 28.241 15.7007 28.159 15.7899C28.0768 15.8791 28.0357 16.0026 28.0357 16.1599C28.0357 16.2919 28.0669 16.401 28.1295 16.4875C28.2086 16.5955 28.3308 16.6495 28.4957 16.6495C28.5999 16.6495 28.6867 16.6257 28.7561 16.5779C28.8254 16.5302 28.8762 16.4606 28.9084 16.3694ZM29.6998 16.1723C29.6678 16.1831 29.6171 16.1959 29.5478 16.2108C29.4786 16.2256 29.4333 16.2403 29.412 16.2547C29.3794 16.278 29.3632 16.3075 29.3632 16.3433C29.3632 16.3786 29.3762 16.4089 29.4023 16.4347C29.4283 16.4603 29.4614 16.4732 29.5018 16.4732C29.5468 16.4732 29.5896 16.4583 29.6305 16.4284C29.6607 16.4057 29.6806 16.378 29.69 16.3451C29.6965 16.3236 29.6998 16.2827 29.6998 16.2223V16.1723ZM29.3632 15.9674L29.1379 15.9258C29.1634 15.8341 29.2073 15.7663 29.2696 15.7222C29.332 15.6782 29.4247 15.6561 29.5476 15.6561C29.6592 15.6561 29.7423 15.6694 29.797 15.6958C29.8516 15.7224 29.8901 15.756 29.9123 15.7968C29.9346 15.8375 29.9458 15.9125 29.9458 16.0215L29.9432 16.3144C29.9432 16.3978 29.9472 16.4594 29.9551 16.4989C29.9632 16.5385 29.9782 16.5809 30 16.6261H29.7515C29.7449 16.6098 29.737 16.5854 29.7274 16.5532C29.7234 16.5385 29.7203 16.529 29.7187 16.5242C29.6759 16.566 29.6303 16.5973 29.5817 16.6182C29.5331 16.639 29.4812 16.6495 29.426 16.6495C29.3287 16.6495 29.252 16.6229 29.196 16.57C29.1401 16.517 29.1121 16.4499 29.1121 16.3689C29.1121 16.3154 29.1247 16.2675 29.1502 16.2255C29.1758 16.1836 29.2116 16.1513 29.2575 16.129C29.3036 16.1068 29.37 16.0871 29.4567 16.0704C29.5736 16.0484 29.6546 16.028 29.6998 16.0089V15.9836C29.6998 15.9348 29.6878 15.9 29.664 15.8792C29.6401 15.8584 29.595 15.848 29.5287 15.848C29.484 15.848 29.4491 15.8569 29.424 15.8745C29.399 15.8922 29.3786 15.9232 29.3632 15.9674ZM26.5534 9.3606L27.4146 12.3262H25.7176L26.5534 9.3606ZM25.3221 13.659H27.7797L28.1304 14.8414H29.9922L27.915 8H25.1422L23.0902 14.8414H24.9919L25.3221 13.659Z" fill="#10298E"/>
<path fill-rule="evenodd" clip-rule="evenodd" d="M15.5355 8.96256C16.2936 8.96256 16.9702 9.31236 17.415 9.86031L17.8112 9.00936C17.1915 8.42261 16.3481 8.06091 15.4179 8.06091C13.9695 8.06091 12.7306 8.93716 12.2221 10.1775H11.4494L10.9932 11.1572H11.9872C11.9797 11.2481 11.9749 11.339 11.9749 11.4318C11.9749 11.5441 11.9807 11.6551 11.9918 11.7647H11.4922L11.0361 12.7448H12.2458C12.7688 13.9537 13.9922 14.8025 15.4179 14.8025C16.1363 14.8025 16.803 14.5869 17.355 14.2185V13.0174C16.9105 13.5244 16.2603 13.8448 15.5355 13.8448C14.6881 13.8448 13.9428 13.4071 13.5088 12.7448H16.0419L16.498 11.7647H13.1361C13.1188 11.6468 13.1095 11.5263 13.1095 11.4035C13.1095 11.3205 13.1139 11.2384 13.1218 11.1572H16.7807L17.2368 10.1775H13.4382C13.8583 9.45121 14.6401 8.96256 15.5355 8.96256Z" fill="#FFBE00"/>
</svg>
