<svg width="35" height="24" viewBox="0 0 35 24" fill="none" xmlns="http://www.w3.org/2000/svg">
<path fill-rule="evenodd" clip-rule="evenodd" d="M6.36288 7.7428C5.74228 7.74375 5.24023 8.1883 5.23898 8.73765V15.3427C5.23913 15.4114 5.24713 15.4784 5.26218 15.5431C5.27893 15.615 5.30438 15.6841 5.33758 15.7494C5.51348 16.0957 5.90608 16.3368 6.36288 16.3376H18.0561V7.7428H6.36288ZM6.36283 7H28.742C29.8261 7.00015 30.7044 7.7776 30.7048 8.73765V15.3427C30.7044 16.3025 29.8261 17.0799 28.742 17.0802H6.36283C5.27863 17.0799 4.40039 16.3025 4.40002 15.3427V8.73765C4.40039 7.7776 5.27863 7.00015 6.36283 7Z" fill="#0F3365"/>
<path fill-rule="evenodd" clip-rule="evenodd" d="M19.9697 14.2623H18.988V10.7321H19.8935V11.1861H19.9045C20.1008 10.8335 20.5155 10.6742 20.9628 10.6742C21.7483 10.6742 22.1789 11.3358 22.1789 11.9442C22.1789 12.6879 21.7262 13.3061 20.8808 13.3061C20.5372 13.3061 20.1662 13.1952 19.9807 12.8958H19.9697V14.2623ZM20.5701 12.6396C20.9408 12.6396 21.1645 12.3645 21.1645 11.9636C21.1645 11.6302 20.9518 11.3406 20.5701 11.3406C20.2099 11.3406 19.9697 11.6207 19.9697 11.9973C19.9697 12.3645 20.2427 12.6396 20.5701 12.6396ZM25.9408 14.2623C26.1428 14.301 26.3445 14.3204 26.5518 14.3204C27.401 14.3204 27.6383 13.7744 27.8959 13.1818C27.9113 13.1462 27.9269 13.1104 27.9427 13.0745L28.9847 10.7321H28.0028L27.419 12.374H27.4082L26.7972 10.7321H25.7393L26.8898 13.3061C26.8193 13.5282 26.6337 13.6538 26.3941 13.6538C26.2573 13.6538 26.1372 13.6396 26.0066 13.6006L25.9408 14.2623ZM25.5749 13.3299C25.5314 13.132 25.5202 12.9341 25.5202 12.736V11.7991C25.5202 11.0313 24.8931 10.7561 24.1676 10.7561C23.7474 10.7561 23.382 10.809 23.033 10.9348L23.0491 11.5239C23.3221 11.3888 23.6384 11.3356 23.9546 11.3356C24.3093 11.3356 24.5985 11.4273 24.6039 11.7703C24.4785 11.7508 24.3041 11.7362 24.1459 11.7362C23.6221 11.7362 22.6785 11.8283 22.6785 12.596C22.6785 13.1419 23.1803 13.3882 23.7422 13.3882C24.1459 13.3882 24.4186 13.2479 24.6421 12.9341H24.6528C24.6528 13.0107 24.6585 13.0873 24.6644 13.1648C24.6685 13.2193 24.6726 13.2743 24.6748 13.3299H25.5749ZM23.5947 12.5334C23.5947 12.2919 23.8565 12.2001 24.1893 12.2001C24.2936 12.2001 24.3952 12.205 24.4901 12.2095C24.5293 12.2113 24.5673 12.2131 24.6039 12.2145C24.6039 12.509 24.3695 12.8088 23.9983 12.8088C23.7693 12.8088 23.5947 12.707 23.5947 12.5334Z" fill="#FFFFFE"/>
<path fill-rule="evenodd" clip-rule="evenodd" d="M10.4552 13.248H11.437V10.7321H10.4552V13.248ZM10.4552 10.3215H11.437V9.68408H10.4552V10.3215ZM13.8382 10.6742C13.9526 10.6742 14.0726 10.6886 14.1708 10.7029L14.1216 11.4273C14.0127 11.3984 13.9035 11.3984 13.7891 11.3984C13.3309 11.3984 13.0744 11.6931 13.0744 12.1858V13.248H12.0927V10.7321H12.9873V11.1955H12.998C13.1672 10.877 13.4127 10.6742 13.8382 10.6742ZM17.5139 11.9926C17.5139 12.8233 16.7993 13.3061 15.8613 13.3061C14.9232 13.3061 14.2086 12.8233 14.2086 11.9926C14.2086 11.157 14.9232 10.6742 15.8613 10.6742C16.7993 10.6742 17.5139 11.157 17.5139 11.9926ZM15.2231 11.9926C15.2231 12.3645 15.4086 12.6975 15.8614 12.6975C16.314 12.6975 16.4996 12.3645 16.4996 11.9926C16.4996 11.6159 16.314 11.2827 15.8614 11.2827C15.4086 11.2827 15.2231 11.6159 15.2231 11.9926ZM8.88842 10.7321H9.77767V12.9537C9.77767 13.987 9.21042 14.3204 8.06492 14.3204C7.59592 14.3204 7.20862 14.2332 6.97942 14.1611L7.02862 13.4752C7.32857 13.6056 7.57947 13.6828 7.98862 13.6828C8.55597 13.6828 8.86127 13.4463 8.86127 12.9537V12.8182H8.85022C8.61587 13.1131 8.28862 13.248 7.89592 13.248C7.11582 13.248 6.63037 12.7268 6.63037 11.9828C6.63037 11.2342 7.02862 10.6742 7.91217 10.6742C8.33207 10.6742 8.67037 10.877 8.87772 11.1859H8.88842V10.7321ZM8.20137 11.3406C7.83587 11.3406 7.64497 11.6255 7.64497 11.9683C7.64497 12.3593 7.90682 12.5817 8.20137 12.5817C8.55032 12.5817 8.82862 12.321 8.82862 11.9345C8.82862 11.6542 8.64312 11.3406 8.20137 11.3406Z" fill="#D8232A"/>
</svg>
