<svg width="35" height="24" viewBox="0 0 35 24" fill="none" xmlns="http://www.w3.org/2000/svg">
<path d="M20.0949 12.127C20.0949 15.9394 17.0398 19.0299 13.2711 19.0299C9.50249 19.0299 6.44739 15.9394 6.44739 12.127C6.44739 8.31455 9.50249 5.224 13.2711 5.224C17.0398 5.224 20.0949 8.31455 20.0949 12.127Z" fill="#ED0006"/>
<path d="M28.9474 12.127C28.9474 15.9394 25.8923 19.0299 22.1236 19.0299C18.3549 19.0299 15.2998 15.9394 15.2998 12.127C15.2998 8.31455 18.3549 5.224 22.1236 5.224C25.8923 5.224 28.9474 8.31455 28.9474 12.127Z" fill="#0099DF"/>
<path fill-rule="evenodd" clip-rule="evenodd" d="M17.6974 6.87305C19.1646 8.1392 20.0949 10.0231 20.0949 12.127C20.0949 14.2308 19.1646 16.1147 17.6974 17.3809C16.2303 16.1147 15.2999 14.2308 15.2999 12.127C15.2999 10.0231 16.2303 8.1392 17.6974 6.87305Z" fill="#6C6BBD"/>
</svg>
