<svg width="35" height="24" viewBox="0 0 35 24" fill="none" xmlns="http://www.w3.org/2000/svg">
<path fill-rule="evenodd" clip-rule="evenodd" d="M10.6252 16.2582H8.50495L6.91495 10.1924C6.8395 9.91335 6.67925 9.66665 6.44355 9.5504C5.8553 9.25825 5.2071 9.0257 4.5 8.90845V8.6749H7.91565C8.3871 8.6749 8.74065 9.0257 8.79955 9.43315L9.62455 13.8087L11.7438 8.6749H13.8052L10.6252 16.2582ZM14.9838 16.2582H12.9813L14.6302 8.6749H16.6327L14.9838 16.2582ZM19.2234 10.7757C19.2823 10.3673 19.6358 10.1337 20.0483 10.1337C20.6965 10.0751 21.4026 10.1924 21.9919 10.4836L22.3454 8.8508C21.7561 8.61725 21.108 8.5 20.5198 8.5C18.5762 8.5 17.1619 9.5504 17.1619 11.0083C17.1619 12.1173 18.1637 12.6996 18.8708 13.0504C19.6358 13.4002 19.9305 13.6337 19.8715 13.9836C19.8715 14.5083 19.2823 14.7418 18.694 14.7418C17.9869 14.7418 17.2798 14.5669 16.6327 14.2747L16.2791 15.9085C16.9862 16.1996 17.7512 16.3169 18.4583 16.3169C20.6376 16.3745 21.9919 15.3251 21.9919 13.75C21.9919 11.7664 19.2234 11.6502 19.2234 10.7757ZM29 16.2582L27.41 8.6749H25.7022C25.3486 8.6749 24.995 8.90845 24.8772 9.25825L21.9329 16.2582H23.9944L24.4058 15.1502H26.9386L27.1743 16.2582H29ZM25.9968 10.7171L26.5851 13.5751H24.9361L25.9968 10.7171Z" fill="#172B85"/>
</svg>
