<svg width="35" height="24" viewBox="0 0 35 24" fill="none" xmlns="http://www.w3.org/2000/svg">
<path fill-rule="evenodd" clip-rule="evenodd" d="M9.11211 17.5858C9.11211 17.4411 9.07801 17.3158 9.00991 17.21C8.94176 17.1042 8.85211 17.0235 8.74091 16.9678C8.85211 16.9121 8.93831 16.8299 8.99951 16.7214C9.06066 16.6128 9.09126 16.4904 9.09126 16.354V16.2788C9.09126 16.1117 9.05931 15.9726 8.99536 15.8612C8.93136 15.7498 8.84166 15.6607 8.72626 15.5939C8.61091 15.5271 8.47251 15.4791 8.31136 15.4498C8.15001 15.4206 7.97071 15.406 7.77326 15.406C7.70656 15.406 7.63701 15.4074 7.56476 15.4102C7.49236 15.413 7.42221 15.4164 7.35416 15.4206C7.28596 15.4248 7.22336 15.4297 7.16646 15.4353C7.10941 15.4409 7.06281 15.4464 7.02666 15.4519C6.94606 15.4659 6.88906 15.4909 6.85571 15.5271C6.82236 15.5633 6.80566 15.6288 6.80566 15.7234V18.2623C6.80566 18.357 6.82296 18.4224 6.85781 18.4585C6.89251 18.4948 6.95161 18.5198 7.03506 18.5337C7.07676 18.542 7.12681 18.549 7.18516 18.5546C7.24356 18.5602 7.30676 18.565 7.37491 18.5692C7.44311 18.5733 7.51326 18.5768 7.58556 18.5797C7.65786 18.5824 7.72871 18.5838 7.79826 18.5838C7.97901 18.5838 8.14931 18.5699 8.30926 18.542C8.46906 18.5143 8.60806 18.4648 8.72626 18.3938C8.84451 18.3228 8.93831 18.2268 9.00786 18.1057C9.07731 17.9846 9.11211 17.8321 9.11211 17.6484V17.5858ZM8.40311 16.3873C8.40311 16.4319 8.39621 16.4744 8.38226 16.5147C8.36831 16.555 8.34546 16.5898 8.31346 16.6192C8.28141 16.6483 8.23841 16.672 8.18416 16.69C8.12996 16.7082 8.06111 16.7172 7.97771 16.7172H7.51061V15.9948C7.52446 15.9948 7.54606 15.9942 7.57521 15.9927C7.60441 15.9913 7.63501 15.9906 7.66696 15.9906H7.82751C8.04161 15.9906 8.19111 16.0178 8.27591 16.072C8.36066 16.1263 8.40311 16.2105 8.40311 16.3246V16.3873ZM8.29676 17.9031C8.37876 17.8391 8.41986 17.7486 8.41986 17.6317V17.5858C8.41986 17.4855 8.38781 17.3986 8.32386 17.3248C8.25986 17.2511 8.14451 17.2141 7.97771 17.2141H7.51061V17.995H7.58356C7.61551 17.995 7.64886 17.9958 7.68366 17.9971C7.71841 17.9985 7.75176 17.9993 7.78376 17.9993H7.85256C8.06666 17.9993 8.21476 17.9672 8.29676 17.9031ZM11.3978 16.9719C11.3978 16.8189 11.3748 16.6887 11.3289 16.5815C11.2831 16.4744 11.2184 16.3866 11.135 16.3184C11.0516 16.2502 10.9494 16.2002 10.8284 16.1681C10.7075 16.1361 10.572 16.1201 10.4218 16.1201C10.2827 16.1201 10.1471 16.1299 10.0152 16.1494C9.88296 16.1688 9.77801 16.1883 9.70021 16.2078C9.64741 16.2218 9.62101 16.2523 9.62101 16.2996V16.6378C9.62101 16.6658 9.62791 16.6853 9.64186 16.6963C9.65571 16.7075 9.67371 16.7131 9.69606 16.7131H9.71686C9.75031 16.7102 9.79196 16.7068 9.84201 16.7026C9.89206 16.6985 9.94836 16.6951 10.011 16.6921C10.0735 16.6894 10.1388 16.6874 10.207 16.6859C10.2751 16.6845 10.3425 16.6838 10.4093 16.6838C10.5066 16.6838 10.583 16.7019 10.6387 16.7381C10.6943 16.7743 10.7221 16.8523 10.7221 16.9719V17.1223H10.4969C10.1381 17.1223 9.87741 17.1787 9.71476 17.2914C9.55211 17.4041 9.47081 17.583 9.47081 17.828V17.8657C9.47081 18.002 9.49101 18.1161 9.53126 18.2079C9.57151 18.2998 9.62516 18.3736 9.69181 18.4294C9.75861 18.485 9.83431 18.5247 9.91916 18.5483C10.004 18.5719 10.0923 18.5838 10.184 18.5838C10.3092 18.5838 10.4169 18.5671 10.5073 18.5337C10.5976 18.5003 10.6831 18.4544 10.7638 18.3959V18.4627C10.7638 18.485 10.7721 18.5045 10.7888 18.5211C10.8055 18.5379 10.8249 18.5462 10.8472 18.5462H11.3144C11.3365 18.5462 11.356 18.5379 11.3727 18.5211C11.3895 18.5045 11.3978 18.485 11.3978 18.4627V16.9719ZM10.574 18.0472C10.6309 18.0291 10.6846 18.0075 10.7346 17.9825V17.5232H10.4969C10.4246 17.5232 10.3648 17.5294 10.3175 17.5419C10.2702 17.5545 10.2326 17.5733 10.2049 17.5983C10.1771 17.6233 10.1576 17.6554 10.1465 17.6943C10.1354 17.7334 10.1298 17.7778 10.1298 17.828V17.8657C10.1298 17.9546 10.1513 18.0117 10.1944 18.0368C10.2376 18.0618 10.3036 18.0743 10.3926 18.0743C10.4565 18.0743 10.517 18.0654 10.574 18.0472ZM13.9503 18.4585V17.0679C13.9503 16.9373 13.9399 16.814 13.9191 16.6985C13.8982 16.583 13.8607 16.4827 13.8065 16.3977C13.7523 16.3128 13.6772 16.2453 13.5812 16.1953C13.4853 16.1451 13.3623 16.1201 13.2121 16.1201C13.0786 16.1201 12.9604 16.1362 12.8576 16.1685C12.7547 16.2007 12.6463 16.2575 12.5323 16.3389V16.2377C12.5323 16.2153 12.5239 16.1956 12.5073 16.1788C12.4905 16.162 12.4711 16.1535 12.4488 16.1535H11.9817C11.9594 16.1535 11.94 16.1618 11.9233 16.1785C11.9066 16.1953 11.8983 16.2148 11.8983 16.237V18.4585C11.8983 18.4808 11.9072 18.501 11.9254 18.5191C11.9434 18.5372 11.9636 18.5462 11.9859 18.5462H12.4905C12.5128 18.5462 12.5323 18.5372 12.5489 18.5191C12.5656 18.5011 12.574 18.481 12.574 18.4587V16.8171C12.6463 16.7782 12.7143 16.7463 12.7783 16.7213C12.8423 16.6963 12.9048 16.6838 12.966 16.6838C13.0299 16.6838 13.0821 16.69 13.1224 16.7026C13.1627 16.7151 13.194 16.7366 13.2162 16.7673C13.2385 16.7977 13.2538 16.838 13.2621 16.8879C13.2705 16.938 13.2747 16.9991 13.2747 17.0713V18.4587C13.2747 18.481 13.283 18.5011 13.2997 18.5191C13.3164 18.5372 13.3358 18.5462 13.3581 18.5462H13.8628C13.8849 18.5462 13.9051 18.5372 13.9232 18.5191C13.9413 18.501 13.9503 18.4808 13.9503 18.4585ZM16.0024 18.0536V18.4251C16.0024 18.4558 15.9953 18.4773 15.9815 18.4898C15.9675 18.5024 15.9453 18.5128 15.9147 18.5211C15.8563 18.5351 15.7806 18.549 15.6874 18.563C15.5943 18.5768 15.4851 18.5838 15.36 18.5838C15.0653 18.5838 14.8296 18.4934 14.6531 18.3123C14.4765 18.1315 14.3882 17.8698 14.3882 17.5273V17.1766C14.3882 16.8342 14.4765 16.5725 14.6531 16.3916C14.8296 16.2105 15.0653 16.1201 15.36 16.1201C15.4851 16.1201 15.5943 16.127 15.6874 16.1409C15.7806 16.1549 15.8563 16.1688 15.9147 16.1827C15.9453 16.191 15.9675 16.2015 15.9815 16.214C15.9953 16.2266 16.0024 16.2482 16.0024 16.2788V16.6504C16.0024 16.6727 15.9946 16.69 15.9794 16.7026C15.9641 16.7151 15.9453 16.7213 15.9231 16.7213H15.9147C15.8368 16.7131 15.7625 16.7061 15.6916 16.7005C15.6207 16.6951 15.5254 16.6921 15.4059 16.6921C15.3586 16.6921 15.3142 16.6998 15.2724 16.7151C15.2307 16.7305 15.1946 16.7569 15.164 16.7944C15.1333 16.8321 15.1091 16.8821 15.091 16.9448C15.0729 17.0074 15.0639 17.0847 15.0639 17.1766V17.5273C15.0639 17.6192 15.0729 17.6964 15.091 17.7591C15.1091 17.8217 15.1333 17.8718 15.164 17.9094C15.1946 17.947 15.2307 17.9735 15.2724 17.9887C15.3142 18.0041 15.3586 18.0117 15.4059 18.0117C15.5254 18.0117 15.6207 18.0089 15.6916 18.0034C15.7625 17.9978 15.8368 17.9908 15.9147 17.9825H15.9231C15.9453 17.9825 15.9641 17.9887 15.9794 18.0013C15.9946 18.0139 16.0024 18.0312 16.0024 18.0536ZM18.3173 17.2058C18.3173 17.0387 18.2943 16.8884 18.2483 16.7548C18.2023 16.6212 18.1354 16.5078 18.0477 16.4145C17.96 16.3213 17.8513 16.2489 17.7218 16.1973C17.5922 16.1459 17.4424 16.1201 17.2725 16.1201C17.1025 16.1201 16.9528 16.1459 16.8232 16.1973C16.6937 16.2489 16.5843 16.3213 16.4952 16.4145C16.406 16.5078 16.3384 16.6212 16.2925 16.7548C16.2464 16.8884 16.2235 17.0387 16.2235 17.2058V17.4981C16.2235 17.6651 16.2464 17.8155 16.2925 17.9491C16.3384 18.0827 16.406 18.1961 16.4952 18.2894C16.5843 18.3827 16.6937 18.4551 16.8232 18.5066C16.9528 18.558 17.1025 18.5838 17.2725 18.5838C17.4424 18.5838 17.5922 18.558 17.7218 18.5066C17.8513 18.4551 17.96 18.3827 18.0477 18.2894C18.1354 18.1961 18.2023 18.0827 18.2483 17.9491C18.2943 17.8155 18.3173 17.6651 18.3173 17.4981V17.2058ZM17.2725 18.0117C17.5185 18.0117 17.6416 17.8405 17.6416 17.4981V17.2058C17.6416 16.8661 17.5185 16.6963 17.2725 16.6963C17.1508 16.6963 17.0582 16.7388 16.9946 16.8237C16.931 16.9086 16.8992 17.036 16.8992 17.2058V17.4981C16.8992 17.6679 16.931 17.796 16.9946 17.8822C17.0582 17.9686 17.1508 18.0117 17.2725 18.0117ZM20.7988 18.4585V17.0679C20.7988 16.9373 20.7882 16.814 20.7675 16.6985C20.7467 16.583 20.7091 16.4827 20.6548 16.3977C20.6006 16.3128 20.5256 16.2453 20.4297 16.1953C20.3337 16.1451 20.2106 16.1201 20.0605 16.1201C19.9271 16.1201 19.8089 16.1362 19.706 16.1685C19.6031 16.2007 19.4947 16.2575 19.3807 16.3389V16.2377C19.3807 16.2153 19.3724 16.1956 19.3556 16.1788C19.339 16.162 19.3194 16.1535 19.2973 16.1535H18.8301C18.8078 16.1535 18.7884 16.1618 18.7717 16.1785C18.7551 16.1953 18.7467 16.2148 18.7467 16.237V18.4585C18.7467 18.4808 18.7557 18.501 18.7738 18.5191C18.7919 18.5372 18.812 18.5462 18.8343 18.5462H19.339C19.3612 18.5462 19.3807 18.5372 19.3974 18.5191C19.414 18.5011 19.4224 18.481 19.4224 18.4587V16.8171C19.4947 16.7782 19.5628 16.7463 19.6267 16.7213C19.6907 16.6963 19.7533 16.6838 19.8145 16.6838C19.8784 16.6838 19.9306 16.69 19.9708 16.7026C20.0111 16.7151 20.0424 16.7366 20.0647 16.7673C20.087 16.7977 20.1022 16.838 20.1106 16.8879C20.1189 16.938 20.1231 16.9991 20.1231 17.0713V18.4587C20.1231 18.481 20.1314 18.5011 20.1481 18.5191C20.1648 18.5372 20.1842 18.5462 20.2065 18.5462H20.7112C20.7334 18.5462 20.7536 18.5372 20.7717 18.5191C20.7897 18.501 20.7988 18.4808 20.7988 18.4585ZM22.6174 18.1447V18.4679C22.6174 18.5148 22.591 18.5425 22.5382 18.5506C22.4742 18.5617 22.4186 18.5699 22.3714 18.5755C22.3241 18.581 22.2698 18.5838 22.2087 18.5838C22.0953 18.5838 21.995 18.5747 21.908 18.5567C21.821 18.5386 21.7483 18.5031 21.6903 18.4502C21.6323 18.3973 21.5881 18.3242 21.5577 18.2309C21.5274 18.1377 21.5121 18.0174 21.5121 17.8697V16.6588L21.1785 16.6045C21.1562 16.5989 21.1361 16.5885 21.118 16.5732C21.0999 16.5579 21.0909 16.5391 21.0909 16.5168V16.2411C21.0909 16.2189 21.0999 16.1987 21.118 16.1806C21.1361 16.1626 21.1562 16.1535 21.1785 16.1535H21.5121V15.811C21.5121 15.7888 21.5204 15.7707 21.537 15.7568C21.5534 15.7429 21.5729 15.7332 21.5951 15.7275L22.1008 15.64H22.1132C22.1353 15.64 22.1533 15.6461 22.1671 15.6586C22.1809 15.6712 22.1878 15.6886 22.1878 15.7108V16.1535H22.5299C22.552 16.1535 22.5715 16.1619 22.5882 16.1787C22.6049 16.1955 22.6133 16.2153 22.6133 16.2377V16.5787C22.6133 16.6012 22.6049 16.6208 22.5882 16.6377C22.5715 16.6545 22.552 16.6629 22.5299 16.6629H22.1878V17.8781C22.1878 17.9616 22.1948 18.0153 22.2087 18.0388C22.2226 18.0625 22.2615 18.0743 22.3254 18.0743H22.5299C22.5882 18.0743 22.6174 18.0978 22.6174 18.1447ZM24.8445 16.9719C24.8445 16.8189 24.8217 16.6887 24.7757 16.5815C24.7299 16.4744 24.6653 16.3866 24.5819 16.3184C24.4985 16.2502 24.3963 16.2002 24.2753 16.1681C24.1544 16.1361 24.0188 16.1201 23.8686 16.1201C23.7295 16.1201 23.594 16.1299 23.462 16.1494C23.3298 16.1688 23.2249 16.1883 23.1471 16.2078C23.0941 16.2218 23.0679 16.2523 23.0679 16.2996V16.6378C23.0679 16.6658 23.0747 16.6853 23.0886 16.6963C23.1026 16.7075 23.1206 16.7131 23.1429 16.7131H23.1637C23.1972 16.7102 23.2388 16.7068 23.2889 16.7026C23.3389 16.6985 23.3952 16.6951 23.4578 16.6921C23.5204 16.6894 23.5857 16.6874 23.6538 16.6859C23.7219 16.6845 23.7894 16.6838 23.8561 16.6838C23.9534 16.6838 24.0299 16.7019 24.0855 16.7381C24.1411 16.7743 24.1689 16.8523 24.1689 16.9719V17.1223H23.9437C23.5849 17.1223 23.3243 17.1787 23.1616 17.2914C22.999 17.4041 22.9177 17.583 22.9177 17.828V17.8657C22.9177 18.002 22.9378 18.1161 22.9781 18.2079C23.0183 18.2998 23.072 18.3736 23.1387 18.4294C23.2055 18.485 23.2812 18.5247 23.366 18.5483C23.4508 18.5719 23.5391 18.5838 23.6309 18.5838C23.756 18.5838 23.8637 18.5671 23.9541 18.5337C24.0444 18.5003 24.1298 18.4544 24.2107 18.3959V18.4627C24.2107 18.485 24.219 18.5045 24.2357 18.5211C24.2523 18.5379 24.2718 18.5462 24.2941 18.5462H24.7612C24.7834 18.5462 24.8029 18.5379 24.8196 18.5211C24.8362 18.5045 24.8445 18.485 24.8445 18.4627V16.9719ZM24.0209 18.0472C24.0778 18.0291 24.1314 18.0075 24.1815 17.9825V17.5232H23.9437C23.8714 17.5232 23.8116 17.5294 23.7644 17.5419C23.7171 17.5545 23.6795 17.5733 23.6518 17.5983C23.6239 17.6233 23.6044 17.6554 23.5934 17.6943C23.5822 17.7334 23.5767 17.7778 23.5767 17.828V17.8657C23.5767 17.9546 23.5982 18.0117 23.6413 18.0368C23.6844 18.0618 23.7504 18.0743 23.8394 18.0743C23.9034 18.0743 23.9637 18.0654 24.0209 18.0472ZM26.8966 18.4251V18.0536C26.8966 18.0312 26.8889 18.0139 26.8737 18.0013C26.8584 17.9887 26.8397 17.9825 26.8174 17.9825H26.8091C26.7312 17.9908 26.6568 17.9978 26.5859 18.0034C26.515 18.0089 26.4198 18.0117 26.3003 18.0117C26.2529 18.0117 26.2084 18.0041 26.1668 17.9887C26.125 17.9735 26.0888 17.947 26.0583 17.9094C26.0277 17.8718 26.0034 17.8217 25.9853 17.7591C25.9672 17.6964 25.9582 17.6192 25.9582 17.5273V17.1766C25.9582 17.0847 25.9672 17.0074 25.9853 16.9448C26.0034 16.8821 26.0277 16.8321 26.0583 16.7944C26.0888 16.7569 26.125 16.7305 26.1668 16.7151C26.2084 16.6998 26.2529 16.6921 26.3003 16.6921C26.4198 16.6921 26.515 16.6951 26.5859 16.7005C26.6568 16.7061 26.7312 16.7131 26.8091 16.7213H26.8174C26.8397 16.7213 26.8584 16.7151 26.8737 16.7026C26.8889 16.69 26.8966 16.6727 26.8966 16.6504V16.2788C26.8966 16.2482 26.8897 16.2266 26.8758 16.214C26.8617 16.2015 26.8397 16.191 26.8091 16.1827C26.7507 16.1688 26.6748 16.1549 26.5817 16.1409C26.4885 16.127 26.3795 16.1201 26.2544 16.1201C25.9595 16.1201 25.724 16.2105 25.5474 16.3916C25.3708 16.5725 25.2825 16.8342 25.2825 17.1766V17.5273C25.2825 17.8698 25.3708 18.1315 25.5474 18.3123C25.724 18.4934 25.9595 18.5838 26.2544 18.5838C26.3795 18.5838 26.4885 18.5768 26.5817 18.563C26.6748 18.549 26.7507 18.5351 26.8091 18.5211C26.8397 18.5128 26.8617 18.5024 26.8758 18.4898C26.8897 18.4773 26.8966 18.4558 26.8966 18.4251ZM28.6942 18.1447V18.4679C28.6942 18.5148 28.6677 18.5425 28.615 18.5506C28.551 18.5617 28.4954 18.5699 28.4482 18.5755C28.4008 18.581 28.3466 18.5838 28.2855 18.5838C28.1721 18.5838 28.0719 18.5747 27.9848 18.5567C27.8977 18.5386 27.8251 18.5031 27.7672 18.4502C27.7091 18.3973 27.6649 18.3242 27.6345 18.2309C27.6042 18.1377 27.5889 18.0174 27.5889 17.8697V16.6588L27.2553 16.6045C27.233 16.5989 27.2129 16.5885 27.1948 16.5732C27.1767 16.5579 27.1677 16.5391 27.1677 16.5168V16.2411C27.1677 16.2189 27.1767 16.1987 27.1948 16.1806C27.2129 16.1626 27.233 16.1535 27.2553 16.1535H27.5889V15.811C27.5889 15.7888 27.5972 15.7707 27.6138 15.7568C27.6302 15.7429 27.6496 15.7332 27.6718 15.7275L28.1775 15.64H28.19C28.2121 15.64 28.2301 15.6461 28.2438 15.6586C28.2577 15.6712 28.2646 15.6886 28.2646 15.7108V16.1535H28.6067C28.6288 16.1535 28.6483 16.1619 28.665 16.1787C28.6817 16.1955 28.6901 16.2153 28.6901 16.2377V16.5787C28.6901 16.6012 28.6817 16.6208 28.665 16.6377C28.6483 16.6545 28.6288 16.6629 28.6067 16.6629H28.2646V17.8781C28.2646 17.9616 28.2716 18.0153 28.2855 18.0388C28.2994 18.0625 28.3383 18.0743 28.4023 18.0743H28.6067C28.665 18.0743 28.6942 18.0978 28.6942 18.1447Z" fill="#005697"/>
<path d="M26.3094 7.36987H19.5332L18.8441 8.14672L16.6077 10.6674L15.9186 11.4443H9.23201L9.91046 10.6577L10.2316 10.2853L10.9101 9.49867H7.82911C7.26626 9.49867 6.80566 9.97152 6.80566 10.5493V12.7663C6.80566 13.3442 7.26626 13.8171 7.82911 13.8171H19.6246C20.1874 13.8171 20.9564 13.4659 21.3333 13.0367L23.1175 11.0048L26.3094 7.36987Z" fill="#005697"/>
<path d="M27.6709 5C28.2338 5 28.6944 5.47285 28.6944 6.05075V8.26765C28.6944 8.8455 28.2338 9.3184 27.6709 9.3184H24.6L25.2849 8.53765L25.6246 8.1506L26.3095 7.3699H19.5334L15.9188 11.4473H9.19067L14.0157 5.98505L14.1983 5.7783C14.5765 5.35025 15.3465 5 15.9093 5H27.6709Z" fill="#FBD500"/>
</svg>
