<svg width="35" height="24" viewBox="0 0 35 24" fill="none" xmlns="http://www.w3.org/2000/svg">
<path fill-rule="evenodd" clip-rule="evenodd" d="M9.51331 4.95593H17.842C23.5015 4.95593 25.6764 8.0489 25.6764 11.9583C25.6764 16.6349 22.6365 18.9855 17.842 18.9855H9.51331V4.95593ZM10.3041 5.7972V18.1937H17.8419C22.3893 18.1937 24.8607 16.0658 24.8607 11.9831C24.8607 7.7767 22.1916 5.7972 17.8419 5.7972H10.3041ZM12.5284 12.2058C13.361 12.2058 14.036 11.53 14.036 10.6964C14.036 9.86285 13.361 9.18705 12.5284 9.18705C11.6958 9.18705 11.0209 9.86285 11.0209 10.6964C11.0209 11.53 11.6958 12.2058 12.5284 12.2058ZM11.3175 12.8491H13.7395V17.1545H11.3175V12.8491Z" fill="#090A0D"/>
<path fill-rule="evenodd" clip-rule="evenodd" d="M22.1174 9.31081H22.8094V11.3893H23.8227C23.5509 7.60351 20.5604 6.76221 17.8419 6.76221H14.9503V9.31081H15.3705C16.1613 9.31081 16.6309 9.83041 16.6309 10.6965C16.6309 11.5625 16.1613 12.0821 15.3952 12.0821H14.9503V17.1545H17.8419C22.2657 17.1545 23.7733 15.1008 23.8474 12.0821H22.1174V9.31081ZM18.781 11.3893V12.0821H17.051V9.31081H18.7316V10.0036H17.743V10.3253H18.6822V11.0181H17.7677V11.3893H18.781ZM19.9178 9.31081H20.9064L21.7466 12.0821H21.0299L20.8817 11.5625H19.9672L19.8189 12.0821H19.0775L19.9178 9.31081ZM20.1727 10.8449H20.165V10.8697L20.1727 10.8449ZM20.1727 10.8449H20.6593L20.4368 10.0779H20.4121L20.1727 10.8449ZM14.9503 11.3893V10.0036H15.3705C15.6423 10.0036 15.9389 10.0779 15.9389 10.6965C15.9389 11.3151 15.667 11.3893 15.3705 11.3893H14.9503Z" fill="#D50072"/>
</svg>
