<svg width="35" height="24" viewBox="0 0 35 24" fill="none" xmlns="http://www.w3.org/2000/svg">
<g clip-path="url(#clip0_4646_7866)">
<path d="M35.5 0H0V24H35.5V0Z" fill="#1F72CD"/>
<path fill-rule="evenodd" clip-rule="evenodd" d="M6.27465 8.5L3 15.7467H6.92025L7.40625 14.5913H8.5171L9.0031 15.7467H13.3182V14.8649L13.7027 15.7467H15.9348L16.3193 14.8462V15.7467H25.2935L26.3848 14.6213L27.4065 15.7467L32.0159 15.7561L28.7309 12.1436L32.0159 8.5H27.478L26.4158 9.60465L25.4261 8.5H15.6634L14.8251 10.3705L13.967 8.5H10.055V9.35185L9.6198 8.5H6.27465ZM19.6758 9.52905H24.8292L26.4054 11.2317L28.0324 9.52905H29.6086L27.2138 12.1426L29.6086 14.726H27.9609L26.3848 13.0036L24.7495 14.726H19.6758V9.52905ZM20.9484 11.5549V10.6057V10.6048H24.164L25.5671 12.1229L24.1018 13.6493H20.9484V12.613H23.7598V11.5549H20.9484ZM7.0332 9.52905H8.94415L11.1162 14.4431V9.52905H13.2095L14.8872 13.0524L16.4334 9.52905H18.5163V14.729H17.2489L17.2386 10.6544L15.3909 14.729H14.2571L12.399 10.6544V14.729H9.7918L9.2975 13.5633H6.627L6.13375 14.7281H4.73679L7.0332 9.52905ZM7.083 12.4856L7.9628 10.4088L8.8416 12.4856H7.083Z" fill="#FAFAFC"/>
</g>
<defs>
<clipPath id="clip0_4646_7866">
<rect width="35" height="24" fill="white"/>
</clipPath>
</defs>
</svg>
