<svg width="35" height="24" viewBox="0 0 35 24" fill="none" xmlns="http://www.w3.org/2000/svg">
<path fill-rule="evenodd" clip-rule="evenodd" d="M8.3462 8.93295C8.81625 8.9726 9.2863 8.69505 9.58005 8.34315C9.86895 7.98135 10.0599 7.49565 10.011 7C9.59475 7.01985 9.08065 7.27755 8.78685 7.63935C8.5176 7.9516 8.28745 8.45715 8.3462 8.93295ZM13.9378 15.3167V7.5898H16.8021C18.2808 7.5898 19.3139 8.6207 19.3139 10.1274C19.3139 11.6342 18.2612 12.6749 16.7629 12.6749H15.1227V15.3167H13.9378ZM10.006 9.0271C9.5919 9.003 9.21405 9.1532 8.90885 9.2745C8.71245 9.35255 8.54615 9.41865 8.4196 9.41865C8.2776 9.41865 8.10445 9.34905 7.91 9.27085C7.6552 9.1684 7.3639 9.05125 7.05845 9.05685C6.3583 9.06675 5.7071 9.46825 5.34965 10.1076C4.61522 11.3863 5.1587 13.2796 5.86865 14.3204C6.2163 14.8359 6.6325 15.4009 7.18085 15.3811C7.4221 15.3719 7.59565 15.2973 7.77525 15.2202C7.98205 15.1314 8.19685 15.0391 8.53225 15.0391C8.856 15.0391 9.0614 15.129 9.2586 15.2153C9.44605 15.2972 9.6261 15.376 9.8934 15.3712C10.4614 15.3612 10.8188 14.8557 11.1664 14.3403C11.5416 13.787 11.7065 13.2472 11.7315 13.1652L11.7344 13.1557C11.7344 13.1557 11.7292 13.153 11.721 13.1492C11.5956 13.0911 10.637 12.6468 10.6279 11.4557C10.6186 10.4559 11.3881 9.94935 11.5093 9.8696C11.5166 9.86475 11.5216 9.8615 11.5239 9.8598C11.0342 9.12625 10.2704 9.04695 10.006 9.0271ZM21.4781 15.3762C22.2223 15.3762 22.9127 14.9945 23.226 14.3898H23.2505V15.3167H24.3473V11.4706C24.3473 10.3554 23.4659 9.63675 22.1097 9.63675C20.8513 9.63675 19.921 10.3653 19.8868 11.3665H20.9542C21.0423 10.8907 21.4781 10.5785 22.0754 10.5785C22.8 10.5785 23.2064 10.9204 23.2064 11.5499V11.9761L21.7278 12.0653C20.3519 12.1496 19.6077 12.7195 19.6077 13.7108C19.6077 14.712 20.3764 15.3762 21.4781 15.3762ZM21.7962 14.4593C21.1646 14.4593 20.7631 14.1519 20.7631 13.6811C20.7631 13.1954 21.1499 12.9128 21.8893 12.8682L23.2064 12.784V13.2201C23.2064 13.9438 22.5992 14.4593 21.7962 14.4593ZM27.9851 15.619C27.5102 16.9721 26.9667 17.4181 25.8112 17.4181C25.7231 17.4181 25.4293 17.4082 25.3607 17.3884V16.4616C25.4342 16.4715 25.6154 16.4814 25.7084 16.4814C26.2323 16.4814 26.5261 16.2584 26.7072 15.6785L26.8149 15.3365L24.8075 9.7111H26.0462L27.4417 14.2759H27.4661L28.8616 9.7111H30.0661L27.9851 15.619ZM15.1226 8.6009H16.4886C17.5168 8.6009 18.1044 9.156 18.1044 10.1324C18.1044 11.1087 17.5168 11.6688 16.4837 11.6688H15.1226V8.6009Z" fill="#090A0D"/>
</svg>
