<svg width="35" height="24" viewBox="0 0 35 24" fill="none" xmlns="http://www.w3.org/2000/svg">
<path d="M22.3182 12.2873C22.8319 12.2985 23.3485 12.2646 23.8601 12.3049C24.3782 12.4015 24.5031 13.1859 24.0428 13.4428C23.7287 13.612 23.3556 13.5058 23.0151 13.5357H22.3182V12.2873ZM24.1571 10.8743C24.2712 11.2771 23.8829 11.6388 23.4949 11.5833H22.3182C22.3265 11.2034 22.3021 10.7911 22.3301 10.4312C22.8015 10.4445 23.2773 10.4042 23.746 10.4523C23.9473 10.5029 24.1159 10.6685 24.1571 10.8743ZM26.9891 4.90042C27.011 5.6697 26.9922 6.4797 26.9985 7.2646C26.9971 10.4558 27.0016 13.6468 26.996 16.8381C26.9753 18.0341 25.9154 19.0733 24.7278 19.0972C23.5389 19.102 22.3499 19.0979 21.1609 19.0992V14.2748C22.4564 14.2682 23.7525 14.2885 25.0475 14.2647C25.6482 14.227 26.3062 13.8307 26.3341 13.1696C26.4049 12.5057 25.7789 12.0465 25.1846 11.9739C24.9562 11.968 24.9628 11.9073 25.1846 11.8809C25.7514 11.7584 26.1966 11.1717 26.0298 10.5842C25.8877 9.9662 25.2047 9.727 24.6365 9.7282C23.4782 9.7203 22.3196 9.7271 21.1612 9.7248C21.1687 8.82415 21.1456 7.92255 21.1736 7.02255C21.2654 5.8482 22.352 4.87972 23.523 4.90073C24.6785 4.90055 25.8338 4.90047 26.9891 4.90042Z" fill="url(#paint0_linear_4646_7867)"/>
<path d="M8.0706 7.1443C8.10015 5.9502 9.1646 4.91955 10.3507 4.9021C11.5352 4.89845 12.7198 4.90157 13.9043 4.90051C13.901 8.8956 13.9107 12.8911 13.8994 16.886C13.8538 18.0655 12.8009 19.0765 11.6277 19.0974C10.441 19.1017 9.2542 19.0981 8.06745 19.0992V14.1122C9.22015 14.3846 10.429 14.5005 11.6049 14.3199C12.3079 14.2068 13.0769 13.8616 13.3149 13.1323C13.4901 12.5085 13.3914 11.852 13.4175 11.2117V9.7249H11.3824C11.3732 10.7083 11.4011 11.6933 11.3677 12.6755C11.3128 13.2793 10.7149 13.6628 10.1455 13.6423C9.43945 13.6498 8.04015 13.1306 8.04015 13.1306C8.0366 11.2881 8.0606 8.98065 8.0706 7.1443Z" fill="url(#paint1_linear_4646_7867)"/>
<path d="M14.6632 10.3246C14.5561 10.3474 14.6417 9.9597 14.6143 9.8127C14.6216 8.883 14.599 7.95225 14.6267 7.0232C14.7183 5.8439 15.8132 4.87299 16.9889 4.9006H20.4513C20.4481 8.8957 20.4577 12.8912 20.4465 16.886C20.4008 18.0656 19.3479 19.0766 18.1746 19.0976C16.9879 19.102 15.8011 19.0983 14.6142 19.0994V13.6355C15.4248 14.3005 16.5264 14.404 17.5362 14.4058C18.2974 14.4056 19.0542 14.2882 19.7935 14.1126V13.1116C18.9604 13.5268 17.981 13.7906 17.0575 13.552C16.4132 13.3917 15.9456 12.7691 15.956 12.1042C15.8814 11.4128 16.2866 10.6828 16.9661 10.4773C17.8097 10.2132 18.7291 10.4151 19.5198 10.7585C19.6892 10.8472 19.8612 10.9572 19.7935 10.6741V9.8873C18.471 9.57265 17.0635 9.45685 15.7349 9.79915C15.3503 9.90765 14.9756 10.0721 14.6632 10.3246Z" fill="url(#paint2_linear_4646_7867)"/>
<defs>
<linearGradient id="paint0_linear_4646_7867" x1="21.1211" y1="11.6963" x2="26.9617" y2="11.6963" gradientUnits="userSpaceOnUse">
<stop stop-color="#58B03A"/>
<stop offset="1" stop-color="#55B330"/>
</linearGradient>
<linearGradient id="paint1_linear_4646_7867" x1="7.9433" y1="12.1358" x2="13.8086" y2="12.1358" gradientUnits="userSpaceOnUse">
<stop stop-color="#0F6EB6"/>
<stop offset="1" stop-color="#006DBA"/>
</linearGradient>
<linearGradient id="paint2_linear_4646_7867" x1="14.6057" y1="11.8339" x2="20.4502" y2="11.8339" gradientUnits="userSpaceOnUse">
<stop stop-color="#DE0D3D"/>
<stop offset="1" stop-color="#E30138"/>
</linearGradient>
</defs>
</svg>
